<svg width="146" height="20" fill="none" xmlns="http://www.w3.org/2000/svg"><path fill-rule="evenodd" clip-rule="evenodd" d="m11.582 17.731-.955-.925c-.627.597-1.224 1.045-1.88 1.373-.628.329-1.404.478-2.27.478-.716 0-1.373-.15-1.97-.418a4.967 4.967 0 0 1-1.582-1.134 4.94 4.94 0 0 1-1.044-1.702 6.04 6.04 0 0 1-.388-2.09c0-.746.119-1.432.388-2.09a4.81 4.81 0 0 1 1.044-1.67 4.968 4.968 0 0 1 1.582-1.135A4.753 4.753 0 0 1 6.477 8c.896 0 1.642.18 2.27.507a7.184 7.184 0 0 1 1.76 1.284l.986-1.075a12.223 12.223 0 0 0-.986-.835c-.358-.24-.716-.478-1.134-.657a6.14 6.14 0 0 0-1.313-.418 8.634 8.634 0 0 0-1.582-.15c-.956 0-1.821.18-2.597.538a6.373 6.373 0 0 0-2.06 1.433 6.75 6.75 0 0 0-1.343 2.12C.149 11.551 0 12.416 0 13.342c0 .926.15 1.791.478 2.627a6.751 6.751 0 0 0 1.343 2.12 6.037 6.037 0 0 0 2.03 1.403c.776.358 1.642.507 2.567.507.597 0 1.134-.06 1.612-.18a8.86 8.86 0 0 0 1.343-.447c.418-.209.806-.418 1.164-.716a7.49 7.49 0 0 0 1.045-.926ZM19.403 14.657l5.373-7.761h-1.702l-4.358 6.447-4.328-6.447h-1.791l5.373 7.79v5.075h1.433v-5.104ZM32.567 6.896h-5.462V19.76h5.701c.687 0 1.343-.09 1.91-.239a4.578 4.578 0 0 0 1.493-.686c.418-.299.716-.657.955-1.105.21-.447.329-.925.329-1.492 0-.448-.06-.836-.21-1.164a3.61 3.61 0 0 0-.596-.896 3.79 3.79 0 0 0-.866-.627 4.238 4.238 0 0 0-1.075-.418c.269-.12.508-.239.747-.418a3.23 3.23 0 0 0 .656-.627c.18-.238.358-.537.478-.835.12-.329.179-.687.179-1.135 0-.477-.09-.925-.298-1.343-.21-.388-.478-.746-.836-1.015-.359-.268-.806-.477-1.314-.657a8.418 8.418 0 0 0-1.79-.208Zm-.209 5.73h-3.79V8.18h3.91c.925 0 1.612.18 2.119.567.478.388.746.896.746 1.553 0 .776-.268 1.343-.836 1.73-.567.419-1.283.598-2.149.598Zm.508 5.852h-4.299V13.91h4.06c1.134 0 1.97.18 2.537.597.567.389.866.926.866 1.642 0 .746-.269 1.314-.836 1.732-.567.418-1.343.597-2.328.597ZM40.388 12.627v7.134h9.403v-1.313h-7.94V13.94h7.014v-1.313h-8.477ZM49.701 6.896h-9.313v1.313H49.7V6.896ZM63.373 19.761l-3.94-5.254c.508-.09.955-.238 1.403-.447a4.305 4.305 0 0 0 1.105-.776c.298-.299.567-.687.716-1.105.18-.418.269-.895.269-1.433 0-.567-.12-1.104-.329-1.582-.209-.477-.537-.866-.925-1.224a4.563 4.563 0 0 0-1.463-.776 6.424 6.424 0 0 0-1.91-.268h-5.523V19.76h1.463v-4.985h3.672l3.731 5.015h1.731v-.03Zm-1.91-8.955c0 .418-.09.806-.239 1.134-.179.329-.388.627-.686.836a3.154 3.154 0 0 1-1.045.537c-.418.12-.836.18-1.314.18h-4.03V8.239h3.97c1.045 0 1.851.209 2.448.686.597.448.896 1.075.896 1.881ZM78.507 8v11.761H76.27v-8.388l.388-.567L78.507 8ZM84.06 12.239h6.448v2.06H84.06v3.432h7.373v2.03h-9.612V12.24h2.24ZM81.821 6.896h9.523v2.06H81.82v-2.06ZM97.313 8.985h-4.09v-2.09h10.448v2.09h-4.09v10.776h-2.268V8.985ZM111.642 9.523c-2.179 5.104-2.388 5.611-4.359 10.268h-2.328l5.672-12.955h2.089l5.672 12.955H116c-2-4.716-2.209-5.254-4.358-10.268ZM120.597 6.896h2.238V17.73h6.777v2.03h-9.015V6.896ZM136.508 19.97c-.985 0-1.94-.18-2.866-.507a7.637 7.637 0 0 1-2.507-1.553l1.373-1.612c.627.538 1.254.956 1.88 1.254.627.299 1.374.418 2.18.418.686 0 1.253-.15 1.671-.448.418-.298.627-.686.627-1.164v-.03c0-.239-.03-.447-.119-.627a1.417 1.417 0 0 0-.448-.507c-.209-.15-.508-.299-.896-.448-.388-.15-.865-.269-1.462-.418a12.465 12.465 0 0 1-1.851-.537c-.537-.209-.985-.448-1.343-.746a3.149 3.149 0 0 1-.836-1.045 3.84 3.84 0 0 1-.299-1.523v-.03c0-.537.12-1.044.329-1.522.209-.448.507-.865.895-1.164.388-.328.836-.567 1.373-.776a5.592 5.592 0 0 1 1.762-.269c.955 0 1.791.15 2.537.418.746.269 1.463.687 2.119 1.194l-1.224 1.702c-.597-.418-1.164-.747-1.761-.985-.567-.24-1.164-.329-1.761-.329-.657 0-1.164.15-1.552.448-.358.299-.538.657-.538 1.075v.03c0 .238.03.477.12.656.089.18.239.358.477.508.239.149.538.298.956.418.388.149.895.268 1.522.417.687.18 1.284.359 1.791.568a5.1 5.1 0 0 1 1.314.776 2.9 2.9 0 0 1 .776 1.045c.179.388.268.865.268 1.403v.03c0 .596-.119 1.134-.328 1.611-.239.478-.537.896-.955 1.224a3.862 3.862 0 0 1-1.433.747c-.508.209-1.134.298-1.791.298Z" fill="#fff"/><path fill-rule="evenodd" clip-rule="evenodd" d="m78.985 2.537-6.806 10.448-3.91-6.09H65.85v12.866h2.238v-9.194l4.03 6.03h.06l1.045-1.493 3.044-4.567 4.568-6.925 1.253.716L81.642 0l-1.97.896-1.97.925 1.283.716ZM144.149 8.597a.6.6 0 0 0 .328-.09c.09-.06.12-.149.12-.268 0-.12-.03-.21-.12-.269a.534.534 0 0 0-.328-.09h-.537v.717h.537Zm-.925-1.015h.925c.119 0 .239.03.358.06.09.03.179.09.269.149.06.06.089.12.119.209.03.09.06.15.06.239 0 .09 0 .149-.03.239l-.089.179c-.03.06-.09.09-.15.149-.059.03-.119.06-.209.09l.568.805h-.448l-.508-.716h-.447v.716h-.359V7.582h-.059Z" fill="#fff"/><path fill-rule="evenodd" clip-rule="evenodd" d="M144.03 10.269a1.637 1.637 0 0 1-1.642-1.642c0-.926.746-1.642 1.642-1.642.895 0 1.641.746 1.641 1.642 0 .895-.716 1.642-1.641 1.642Zm1.91-1.642c0-1.045-.866-1.91-1.91-1.91a1.924 1.924 0 0 0-1.911 1.91c0 1.045.866 1.91 1.911 1.91 1.044-.03 1.91-.865 1.91-1.91Z" fill="#fff"/></svg>