<svg width="26" height="24" fill="none" xmlns="http://www.w3.org/2000/svg"><path d="m22.556 3.548 2.515 4.235a.559.559 0 0 1-.097.693L9.547 22.971l-.005.005a.172.172 0 0 1-.027.02l-.01.008a.32.32 0 0 1-.043.033H9.46a.304.304 0 0 1-.046.023l-.006.003-.005.002a.046.046 0 0 0-.003.001l-.065-.135.065.135-.003.001c-.009.005-.03.015-.05.022l-.05-.141.05.141a.558.558 0 0 1-.183.034.548.548 0 0 1-.178-.032.168.168 0 0 1-.037-.01L22.556 3.547Zm0 0a.56.56 0 0 0-.152-.163l-.025-.019-.004-.003a.233.233 0 0 0-.031-.02m.212.205-.212-.206m0 0L17.958.946a.56.56 0 0 0-.633.066m5.019 2.33-5.02-2.33m0 0L3.29 13.06M17.325 1.012 3.27 13.08m0 0 .002-.003a.17.17 0 0 1 .017-.017m-.019.02a.234.234 0 0 0-.012.014l-.003.002a.563.563 0 0 0-.093.128.168.168 0 0 0-.018.03v.002L.898 18.263l2.372-5.183Zm.02-.02.097.114-.098-.114ZM1.15 18.988a.559.559 0 0 1-.25-.725l.25.724Zm0 0 7.753 4.07-7.753-4.07Zm7.775 4.08a.202.202 0 0 1-.021-.009l.02.01Zm0 0 .003.002-.003-.002ZM22.55 3.542v-.001.001Zm-17.85 9.783L17.76 2.113l3.355 1.834L8.798 15.086l-4.097-1.76Zm3.867 8.294-6.432-3.378 1.804-4.024 4.421 1.9.207 5.502ZM23.88 7.968 9.677 21.314l-.2-5.332L16.201 9.9l5.742-5.193 1.936 3.26Z" fill="#FFBD00" stroke="#FFBD00" stroke-width=".3"/></svg>