<svg width="36" height="23" fill="none" xmlns="http://www.w3.org/2000/svg"><path d="M19.48 8.399a3.101 3.101 0 1 0 0 6.202 3.101 3.101 0 0 0 0-6.202Zm0 5.663a2.562 2.562 0 1 1 0-5.124 2.562 2.562 0 0 1 0 5.124Z" fill="#2F80ED"/><path d="M19.481 10.397a.465.465 0 0 1 .464.463.27.27 0 0 0 .54 0 1.004 1.004 0 0 0-.764-.973v-.184a.27.27 0 0 0-.54 0v.2a1.003 1.003 0 0 0 .3 1.96.464.464 0 1 1-.463.464.27.27 0 1 0-.54 0 1.005 1.005 0 0 0 .704.957v.193a.27.27 0 0 0 .539 0V13.3a1.003 1.003 0 0 0-.24-1.977.464.464 0 0 1 0-.927ZM17.601 7.618a3.1 3.1 0 1 0 0-6.201 3.1 3.1 0 0 0 0 6.201Zm0-5.663a2.562 2.562 0 1 1 0 5.125 2.562 2.562 0 0 1 0-5.125Z" fill="#2F80ED"/><path d="M17.6 5.808a.464.464 0 0 1-.463-.464.27.27 0 0 0-.54 0 1.004 1.004 0 0 0 .697.955v.215a.27.27 0 1 0 .539 0V6.32a1.003 1.003 0 0 0-.232-1.979.464.464 0 1 1 .463-.464.27.27 0 0 0 .54 0 1.004 1.004 0 0 0-.771-.975V2.74a.27.27 0 0 0-.54 0v.183a1.003 1.003 0 0 0 .308 1.957.464.464 0 0 1 0 .928ZM17.601 15.382a3.1 3.1 0 1 0 0 6.2 3.1 3.1 0 0 0 0-6.2Zm0 5.663a2.562 2.562 0 1 1 0-5.123 2.562 2.562 0 0 1 0 5.123Z" fill="#2F80ED"/><path d="M17.602 17.38a.464.464 0 0 1 .464.463.27.27 0 1 0 .54 0 1.004 1.004 0 0 0-.771-.975v-.202a.27.27 0 0 0-.54 0v.223a1.003 1.003 0 0 0 .307 1.957.464.464 0 0 1 .024.927.256.256 0 0 0-.094-.005.465.465 0 0 1-.393-.458.27.27 0 1 0-.54 0 1.005 1.005 0 0 0 .697.955v.22a.27.27 0 0 0 .539 0v-.2a1.002 1.002 0 0 0-.233-1.978.465.465 0 1 1 0-.927Z" fill="#2F80ED"/><path d="M11.858 6.982a.263.263 0 0 0-.218-.059L4.48 8.265H3.384A1.3 1.3 0 0 0 2.09 9.433h-.504c-.644 0-1.182.502-1.182 1.146v1.842a1.2 1.2 0 0 0 1.182 1.19h.504a1.3 1.3 0 0 0 1.19 1.116v4.724a.262.262 0 0 0 .26.27h2.134a.259.259 0 0 0 .256-.27v-4.444l5.707 1.069a.256.256 0 0 0 .29-.15.265.265 0 0 0 .022-.115V7.188a.263.263 0 0 0-.09-.207ZM.944 12.42v-1.842c0-.347.296-.606.643-.606h.48v3.1h-.48a.66.66 0 0 1-.643-.652Zm1.662 1.009V9.57a.778.778 0 0 1 .778-.765h.84v5.39h-.84a.778.778 0 0 1-.778-.765Zm2.786 5.752H3.818v-4.448h.663l.91.172v4.275Zm6.02-3.696L5.8 14.433a.256.256 0 0 0-.173-.033l-.865-.16V8.76l6.648-1.246v7.972Z" fill="#2F80ED" stroke="#2F80ED" stroke-width=".15"/><path d="M13.297 11.23a.27.27 0 1 0 0 .54h2.201a.27.27 0 1 0 0-.54h-2.201ZM12.772 9.524c.039 0 .078-.01.113-.026l1.932-.898a.269.269 0 1 0-.228-.489l-1.931.899a.27.27 0 0 0 .114.514ZM14.703 14.914a.27.27 0 0 0 .114-.514l-1.932-.898a.27.27 0 0 0-.368.337.268.268 0 0 0 .141.152l1.932.898a.268.268 0 0 0 .113.025Z" fill="#2F80ED"/></svg>