<svg width="36" height="24" fill="none" xmlns="http://www.w3.org/2000/svg"><path d="M18.96 13.295a.286.286 0 0 0 .259-.28v-2.03a.286.286 0 0 0-.26-.28l-1.31-.127a5.676 5.676 0 0 0-.663-1.567l.83-1.003a.281.281 0 0 0-.016-.377l-1.418-1.432a.281.281 0 0 0-.38-.02l-1.005.834a5.863 5.863 0 0 0-1.568-.66l-.126-1.311a.287.287 0 0 0-.28-.26H10.99a.287.287 0 0 0-.28.26l-.127 1.307a5.677 5.677 0 0 0-1.57.661L8.01 6.18a.281.281 0 0 0-.378.017L6.197 7.629a.281.281 0 0 0-.018.38l.833 1.004a5.884 5.884 0 0 0-.662 1.565l-1.312.127a.284.284 0 0 0-.257.28v2.03a.284.284 0 0 0 .257.28l1.31.127c.14.552.364 1.08.662 1.567l-.831 1.003a.281.281 0 0 0 .018.378l1.435 1.433a.281.281 0 0 0 .378.017l1.005-.833a5.86 5.86 0 0 0 1.568.66l.127 1.311a.287.287 0 0 0 .28.26h2.033a.287.287 0 0 0 .28-.26l.126-1.307A5.677 5.677 0 0 0 15 16.99l1.004.83a.282.282 0 0 0 .378-.017l1.435-1.433a.281.281 0 0 0 .018-.378L17 14.987c.296-.487.52-1.014.665-1.566l1.293-.126Zm-1.798-.195a5.332 5.332 0 0 1-.743 1.757.282.282 0 0 0 .019.333l.799.963-1.073 1.07-.964-.799a.281.281 0 0 0-.334-.018 5.12 5.12 0 0 1-1.756.739.289.289 0 0 0-.221.254l-.121 1.257h-1.523l-.121-1.257a.285.285 0 0 0-.222-.251 5.308 5.308 0 0 1-1.758-.742.282.282 0 0 0-.332.02l-.964.798-1.072-1.07.799-.964a.281.281 0 0 0 .017-.335 5.12 5.12 0 0 1-.74-1.754.284.284 0 0 0-.251-.22l-1.257-.121v-1.52L6.6 11.12a.283.283 0 0 0 .248-.219c.14-.626.393-1.22.744-1.757a.281.281 0 0 0-.019-.333l-.798-.963 1.072-1.07.964.799a.281.281 0 0 0 .335.018 5.12 5.12 0 0 1 1.756-.739.288.288 0 0 0 .221-.254l.121-1.257h1.523l.12 1.257a.285.285 0 0 0 .222.251c.626.14 1.222.39 1.759.742a.281.281 0 0 0 .331-.02l.963-.797 1.057 1.068-.8.965a.281.281 0 0 0-.017.335 5.12 5.12 0 0 1 .74 1.754.287.287 0 0 0 .254.22l1.26.121v1.52l-1.243.121a.288.288 0 0 0-.252.219Z" fill="#2F80ED"/><path d="M11.998 7.566A4.434 4.434 0 1 0 16.438 12a4.442 4.442 0 0 0-4.44-4.434Zm0 8.305A3.87 3.87 0 1 1 15.875 12a3.878 3.878 0 0 1-3.877 3.87Z" fill="#2F80ED"/><path d="M11.999 10.655a.53.53 0 0 1 .53.53.282.282 0 0 0 .562 0 1.095 1.095 0 0 0-.764-1.042v-.206a.281.281 0 1 0-.563 0v.18a1.092 1.092 0 0 0 .235 2.16.53.53 0 1 1-.53.53.282.282 0 0 0-.563 0 1.095 1.095 0 0 0 .811 1.056v.293a.281.281 0 1 0 .563 0v-.293a1.092 1.092 0 0 0-.281-2.148.53.53 0 0 1 0-1.06Z" fill="#2F80ED"/><path d="M21.858 11.051a.282.282 0 0 0-.433 0l-1.79 2.16a.296.296 0 0 0 .064.428.29.29 0 0 0 .152.049h1.415a9.788 9.788 0 0 1-3.344 6.133c-1.723 1.478-3.888 2.32-5.94 2.32-1.338 0-2.737-.362-4.046-1.044a10.053 10.053 0 0 1-3.445-2.956.281.281 0 1 0-.454.332 10.616 10.616 0 0 0 3.639 3.12c1.389.725 2.877 1.107 4.306 1.107 2.184 0 4.482-.888 6.306-2.452a10.413 10.413 0 0 0 3.545-6.56h1.599a.29.29 0 0 0 .216-.474l-1.79-2.163Zm-1.409 2.074 1.192-1.437 1.192 1.437H20.45ZM4.404 10.482a.29.29 0 0 0-.255-.17H2.734A9.787 9.787 0 0 1 6.078 4.18c1.723-1.477 3.888-2.32 5.94-2.32 1.338 0 2.737.362 4.046 1.044 1.358.71 2.537 1.721 3.445 2.956a.281.281 0 1 0 .453-.332 10.615 10.615 0 0 0-3.638-3.12C14.935 1.681 13.446 1.3 12.018 1.3c-2.184 0-4.483.888-6.306 2.452a10.413 10.413 0 0 0-3.545 6.56h-1.6a.29.29 0 0 0-.216.474l1.791 2.16a.28.28 0 0 0 .433.002l1.79-2.162a.288.288 0 0 0 .039-.303Zm-2.046 1.83-1.191-1.437H3.55l-1.192 1.437Z" fill="#2F80ED" stroke="#2F80ED" stroke-width=".15"/></svg>