<svg width="20" height="20" fill="none" xmlns="http://www.w3.org/2000/svg"><g clip-path="url(#a)" fill="#BDBDBD"><path d="M17.927 2.605H16.67V1.61a.522.522 0 0 0-.52-.521.522.522 0 0 0-.522.52v.996h-5.105V1.61a.522.522 0 0 0-.521-.521.522.522 0 0 0-.521.52v.996H4.324V1.61a.522.522 0 0 0-.52-.521.522.522 0 0 0-.522.52v.996H2.08C.933 2.605 0 3.569 0 4.715v12.112c0 1.152.927 2.084 2.079 2.084H17.92A2.078 2.078 0 0 0 20 16.832V4.715c.005-1.146-.927-2.11-2.073-2.11Zm1.036 14.222a1.04 1.04 0 0 1-1.031 1.042H2.079a1.036 1.036 0 0 1-1.037-1.037V4.715c0-.578.464-1.068 1.037-1.068h1.203v.755c0 .287.235.521.521.521a.523.523 0 0 0 .521-.52v-.756h5.158v.755c0 .287.234.521.52.521a.522.522 0 0 0 .522-.52v-.756h5.105v.755c0 .287.235.521.521.521.287 0 .521-.234.521-.52v-.756h1.256c.578 0 1.036.495 1.036 1.068v12.112Z"/><path d="M8.632 7.033H7.72a.522.522 0 0 0-.52.521c0 .287.234.521.52.521h.912a.522.522 0 0 0 .52-.52.522.522 0 0 0-.52-.522ZM12.259 7.033h-.912a.522.522 0 0 0-.52.521c0 .287.234.521.52.521h.912a.522.522 0 0 0 .52-.52.52.52 0 0 0-.52-.522ZM15.915 7.033h-.912a.523.523 0 0 0-.52.521c0 .287.234.521.52.521h.912a.523.523 0 0 0 .521-.52.523.523 0 0 0-.52-.522ZM8.632 10.628H7.72a.523.523 0 0 0-.52.52c0 .287.234.522.52.522h.912a.523.523 0 0 0 .52-.521.523.523 0 0 0-.52-.521ZM4.98 10.628h-.916a.523.523 0 0 0-.521.52c0 .287.234.522.52.522h.913a.523.523 0 0 0 .52-.521.518.518 0 0 0-.515-.521ZM12.259 10.628h-.912a.523.523 0 0 0-.52.52c0 .287.234.522.52.522h.912a.523.523 0 0 0 .52-.521.52.52 0 0 0-.52-.521ZM15.915 10.628h-.912a.523.523 0 0 0-.52.52c0 .287.234.522.52.522h.912a.523.523 0 0 0 .521-.521.523.523 0 0 0-.52-.521ZM8.632 14.17H7.72a.522.522 0 0 0-.52.521c0 .287.234.521.52.521h.912a.523.523 0 0 0 .52-.52.522.522 0 0 0-.52-.522ZM4.98 14.17h-.916a.522.522 0 0 0-.521.521c0 .287.234.521.52.521h.913a.523.523 0 0 0 .52-.52.518.518 0 0 0-.515-.522ZM12.259 14.17h-.912a.522.522 0 0 0-.52.521c0 .287.234.521.52.521h.912a.523.523 0 0 0 .52-.52.52.52 0 0 0-.52-.522Z"/></g><defs><clipPath id="a"><path fill="#fff" d="M0 0h20v20H0z"/></clipPath></defs></svg>