<svg width="36" height="36" fill="none" xmlns="http://www.w3.org/2000/svg"><path d="M32.493 1.353C30.516.48 27.91 0 25.157 0c-2.753 0-5.358.48-7.335 1.353-2.251.993-3.491 2.418-3.491 4.013v9.09a10.988 10.988 0 0 0-3.306-.507C4.946 13.949 0 18.895 0 24.974 0 31.054 4.946 36 11.025 36c4.183 0 7.829-2.341 9.697-5.781 1.382.291 2.898.444 4.435.444 2.754 0 5.359-.48 7.336-1.352 2.251-.993 3.49-2.419 3.49-4.014V5.367c0-1.596-1.24-3.021-3.49-4.014Zm-13.82 1.93c1.715-.757 4.018-1.174 6.484-1.174 2.467 0 4.77.417 6.484 1.173 1.378.608 2.233 1.407 2.233 2.084 0 .678-.855 1.476-2.233 2.084-1.714.756-4.017 1.173-6.484 1.173-2.466 0-4.77-.417-6.484-1.173-1.377-.608-2.233-1.406-2.233-2.084 0-.677.856-1.476 2.233-2.084ZM11.026 33.89c-4.917 0-8.917-4-8.917-8.916 0-4.917 4-8.917 8.916-8.917 4.917 0 8.917 4 8.917 8.916 0 4.917-4 8.917-8.917 8.917Zm20.615-6.51c-1.714.756-4.017 1.173-6.484 1.173-1.245 0-2.468-.11-3.598-.32.273-.88.438-1.808.48-2.768 1.002.142 2.045.215 3.118.215 2.754 0 5.359-.48 7.336-1.353a9.303 9.303 0 0 0 1.381-.746v1.715c0 .678-.855 1.476-2.233 2.084Zm0-4.983c-1.714.757-4.017 1.173-6.484 1.173-1.122 0-2.205-.087-3.23-.255a10.934 10.934 0 0 0-.912-3.003 21.9 21.9 0 0 0 4.142.385c2.754 0 5.359-.48 7.336-1.353a9.296 9.296 0 0 0 1.381-.746v1.716c0 .677-.855 1.476-2.233 2.083Zm0-4.983c-1.714.757-4.017 1.173-6.484 1.173-2.18 0-4.262-.332-5.897-.937a11.098 11.098 0 0 0-2.82-2.278v-1.756c.406.269.867.518 1.382.745 1.977.873 4.582 1.353 7.335 1.353 2.754 0 5.359-.48 7.336-1.353a9.295 9.295 0 0 0 1.381-.745v1.715c0 .677-.855 1.476-2.233 2.083Zm0-4.982c-1.714.756-4.017 1.172-6.484 1.172-2.466 0-4.77-.416-6.484-1.173-1.377-.607-2.233-1.406-2.233-2.083V8.634c.406.269.867.519 1.382.746 1.977.872 4.582 1.352 7.335 1.352 2.754 0 5.359-.48 7.336-1.352a9.298 9.298 0 0 0 1.381-.746v1.715c0 .677-.855 1.476-2.233 2.083Z" fill="#2F80ED"/><path d="M12.432 23.837H10.17a.925.925 0 0 1 0-1.848h3.82V19.88h-1.912v-1.423H9.97v1.43a3.036 3.036 0 0 0-2.832 3.026 3.036 3.036 0 0 0 3.033 3.033h2.262a1.005 1.005 0 0 1 0 2.007H7.557v2.11h2.412v1.423h2.11v-1.423h.353a3.116 3.116 0 0 0 3.113-3.113 3.117 3.117 0 0 0-3.113-3.113Z" fill="#2F80ED"/></svg>