<svg width="36" height="24" fill="none" xmlns="http://www.w3.org/2000/svg"><g clip-path="url(#a)" fill="#2F80ED" stroke="#fff"><path d="M18.462 6.566a1.4 1.4 0 1 1-2.8 0 1.4 1.4 0 0 1 2.8 0Z" stroke-width=".2"/><path d="m20.792 3.14-.106.107C19.181 1.75 17.383.867 16.136.39a3.619 3.619 0 0 0-3.84.814l-3.68 3.664-.107-.106.106.106a3.601 3.601 0 0 0-.751 3.992c.191.43.4.852.622 1.26l.054.098-.08.08-8.08 8.08a.788.788 0 0 0-.23.556v4.125c0 .435.353.788.787.788h4.125a.788.788 0 0 0 .788-.788v-1.837h1.837a.788.788 0 0 0 .788-.788v-1.837H10.313a.787.787 0 1 0 0-1.575H7.687a.788.788 0 0 0-.787.787V19.647H5.062a.788.788 0 0 0-.787.787V22.272h-2.55V19.26l.044-.044 8.313-8.313a.787.787 0 0 0 .117-.965l.128-.078a15.17 15.17 0 0 1-.887-1.701l11.352-5.018Zm0 0-.106.107c1.51 1.503 2.419 3.322 2.915 4.586a3.586 3.586 0 0 1-.808 3.854l-3.726 3.708a3.607 3.607 0 0 1-3.943.773l-.058.138.058-.138c-.67-.279-1.318-.61-1.927-.984a.787.787 0 0 1 .824-1.342l.078-.128-.079.128c.54.331 1.116.625 1.709.871.766.32 1.64.15 2.227-.434l-.106-.106.106.106 3.725-3.708c.57-.567.748-1.415.454-2.162-.438-1.118-1.24-2.731-2.56-4.046-1.313-1.306-2.903-2.081-4.002-2.501a2.041 2.041 0 0 0-2.165.458L9.726 5.985a2.016 2.016 0 0 0-.423 2.235l11.489-5.08Z" stroke-width=".3"/></g><defs><clipPath id="a"><path fill="#fff" d="M0 0h24v24H0z"/></clipPath></defs></svg>