<svg width="16" height="17" fill="none" xmlns="http://www.w3.org/2000/svg"><path d="M15.502 2 14.052.51a1.67 1.67 0 0 0-2.403 0L.862 11.59a.495.495 0 0 0-.13.253l-.724 4.02a.49.49 0 0 0 .13.429c.109.112.264.161.416.133l3.915-.745a.473.473 0 0 0 .246-.133l10.787-11.08a1.778 1.778 0 0 0 0-2.468ZM1.054 15.35l.438-2.432 1.93 1.982-2.368.45Zm3.33-.824L1.856 11.93l9.225-9.475 2.527 2.595-9.226 9.476Zm10.455-10.74-.567.583-2.527-2.595.567-.583a.748.748 0 0 1 1.077 0l1.45 1.49c.298.305.298.8 0 1.106Z" fill="#2F80ED"/></svg>