<svg width="36" height="24" fill="none" xmlns="http://www.w3.org/2000/svg"><path fill-rule="evenodd" clip-rule="evenodd" d="M1.219 6.586V3.89A2.675 2.675 0 0 1 3.89 1.219h2.695a.61.61 0 0 0 0-1.219H3.89A3.895 3.895 0 0 0 0 3.89v2.696a.61.61 0 0 0 1.219 0ZM6.586 22.78a.61.61 0 0 1 0 1.219H3.89A3.895 3.895 0 0 1 0 20.11v-2.696a.61.61 0 1 1 1.219 0v2.695a2.675 2.675 0 0 0 2.672 2.672h2.695ZM24 17.414v2.695A3.895 3.895 0 0 1 20.11 24h-2.696a.61.61 0 1 1 0-1.219h2.695a2.675 2.675 0 0 0 2.672-2.672v-2.695a.61.61 0 0 1 1.219 0Zm0-13.523v2.695a.61.61 0 1 1-1.219 0V3.89a2.675 2.675 0 0 0-2.672-2.672h-2.695a.61.61 0 1 1 0-1.219h2.695A3.895 3.895 0 0 1 24 3.89Zm-7.794 13.847a.633.633 0 1 0-.86-.93A4.918 4.918 0 0 1 12 18.119a4.918 4.918 0 0 1-3.346-1.31.633.633 0 0 0-.86.93A6.18 6.18 0 0 0 12 19.383a6.18 6.18 0 0 0 4.206-1.645Zm-2.94-8.691v4.5c0 .892-.726 1.617-1.618 1.617h-.515a.633.633 0 0 1 0-1.266h.515a.352.352 0 0 0 .352-.351v-4.5a.633.633 0 1 1 1.266 0Zm4.359 1.77V9.011a.598.598 0 0 0-1.195 0v1.804a.598.598 0 1 0 1.195 0Zm-11.11 0a.598.598 0 1 0 1.196 0V9.011a.598.598 0 0 0-1.195 0v1.804Z" fill="#2F80ED"/></svg>