<svg width="36" height="24" fill="none" xmlns="http://www.w3.org/2000/svg"><path d="M4.672 9.281h4.673a.281.281 0 1 0 0-.562H4.672a.281.281 0 1 0 0 .562ZM13.779 11.813H4.672a.281.281 0 1 0 0 .562h9.107a.28.28 0 1 0 0-.563ZM13.779 14.906H4.672a.281.281 0 0 0 0 .563h9.107a.281.281 0 0 0 0-.563Z" fill="#2F80ED"/><mask id="a" maskUnits="userSpaceOnUse" x="0" y="0" width="24" height="24" fill="#000"><path fill="#fff" d="M0 0h24v24H0z"/><path d="M18.065 1a4.888 4.888 0 0 0-3.135 1.139 5.023 5.023 0 0 0-1.708 2.901H1.283c-.151 0-.283.107-.283.26v16.902a.55.55 0 0 0 .32.49.584.584 0 0 0 .626-.079l1.938-1.64a.04.04 0 0 1 .049-.004l2.323 1.904a.583.583 0 0 0 .731-.005l2.29-1.897a.04.04 0 0 1 .048-.003l2.297 1.903a.58.58 0 0 0 .731 0l2.317-1.9a.04.04 0 0 1 .047-.002l1.94 1.644a.567.567 0 0 0 .84-.12.537.537 0 0 0 .082-.29V10.996c.183.015.32.023.477.023C20.78 11.02 23 8.774 23 6.01c0-1.329-.52-2.603-1.446-3.542A4.9 4.9 0 0 0 18.065 1Zm-1.034 21.188c0 .004-.019.008-.031-.002l-1.94-1.647a.579.579 0 0 0-.734-.003l-2.315 1.898a.04.04 0 0 1-.023.01.04.04 0 0 1-.024-.007l-2.296-1.902a.582.582 0 0 0-.734.002l-2.29 1.897a.04.04 0 0 1-.047.003l-2.323-1.903a.582.582 0 0 0-.736.008l-1.946 1.643c-.012.011-.044.008-.044.003V5.597h11.597c-.012.139-.027.274-.027.417 0 1.149.388 2.262 1.1 3.154a4.918 4.918 0 0 0 2.813 1.745v11.275Zm1.034-11.725a4.344 4.344 0 0 1-2.439-.751 4.444 4.444 0 0 1-1.617-2 4.52 4.52 0 0 1-.25-2.576 4.48 4.48 0 0 1 1.202-2.283 4.371 4.371 0 0 1 2.248-1.22 4.33 4.33 0 0 1 2.537.254 4.406 4.406 0 0 1 1.97 1.642 4.506 4.506 0 0 1-.547 5.627 4.362 4.362 0 0 1-3.104 1.307Z"/></mask><path d="M18.065 1a4.888 4.888 0 0 0-3.135 1.139 5.023 5.023 0 0 0-1.708 2.901H1.283c-.151 0-.283.107-.283.26v16.902a.55.55 0 0 0 .32.49.584.584 0 0 0 .626-.079l1.938-1.64a.04.04 0 0 1 .049-.004l2.323 1.904a.583.583 0 0 0 .731-.005l2.29-1.897a.04.04 0 0 1 .048-.003l2.297 1.903a.58.58 0 0 0 .731 0l2.317-1.9a.04.04 0 0 1 .047-.002l1.94 1.644a.567.567 0 0 0 .84-.12.537.537 0 0 0 .082-.29V10.996c.183.015.32.023.477.023C20.78 11.02 23 8.774 23 6.01c0-1.329-.52-2.603-1.446-3.542A4.9 4.9 0 0 0 18.065 1Zm-1.034 21.188c0 .004-.019.008-.031-.002l-1.94-1.647a.579.579 0 0 0-.734-.003l-2.315 1.898a.04.04 0 0 1-.023.01.04.04 0 0 1-.024-.007l-2.296-1.902a.582.582 0 0 0-.734.002l-2.29 1.897a.04.04 0 0 1-.047.003l-2.323-1.903a.582.582 0 0 0-.736.008l-1.946 1.643c-.012.011-.044.008-.044.003V5.597h11.597c-.012.139-.027.274-.027.417 0 1.149.388 2.262 1.1 3.154a4.918 4.918 0 0 0 2.813 1.745v11.275Zm1.034-11.725a4.344 4.344 0 0 1-2.439-.751 4.444 4.444 0 0 1-1.617-2 4.52 4.52 0 0 1-.25-2.576 4.48 4.48 0 0 1 1.202-2.283 4.371 4.371 0 0 1 2.248-1.22 4.33 4.33 0 0 1 2.537.254 4.406 4.406 0 0 1 1.97 1.642 4.506 4.506 0 0 1-.547 5.627 4.362 4.362 0 0 1-3.104 1.307Z" fill="#2F80ED"/><path d="M13.222 5.04v.2h.165l.031-.162-.196-.038ZM1 22.202H.8v.003l.2-.003Zm.32.49.086-.18-.005-.003-.081.183Zm.626-.079.128.154.001-.001-.129-.153Zm1.938-1.64-.129-.153.13.152Zm.049-.004.126-.154-.008-.007-.009-.006-.11.167Zm2.323 1.904-.127.154.002.002.125-.156Zm.731-.005.127.155h.001l-.128-.155Zm2.29-1.897.128.154.001-.001-.128-.153Zm.048-.003.128-.154-.008-.006-.008-.006-.112.166Zm2.297 1.903-.128.154.002.002.126-.156Zm.364.129v.2-.2Zm.367-.13.126.156.001-.001-.127-.155Zm2.317-1.898.127.154h.001l-.128-.154Zm.047-.003.13-.152-.009-.007-.009-.006-.112.165Zm1.94 1.644.13-.152-.13.152Zm.616.079-.084-.182-.004.002.088.18Zm.306-.49h-.2v.002l.2-.002Zm0-11.205.016-.2-.216-.017v.217h.2ZM23 6.01h.2-.2Zm-6 16.175-.13.153.13-.152Zm-1.94-1.646.13-.152-.002-.002-.128.154Zm-.734-.003-.126-.155.126.155Zm-2.315 1.898-.127-.154-.002.002.13.152Zm-.046.003-.128.154.007.006.008.005.112-.165Zm-2.297-1.902.128-.154-.002-.002-.126.156Zm-.734.002-.126-.155-.001.001.127.154Zm-2.29 1.897-.127-.154-.001.001.128.153Zm-.047.003-.127.155.008.006.008.006.11-.167Zm-2.323-1.903.127-.155-.002-.002-.125.157Zm-.736.008-.128-.154-.001.001.129.153Zm-1.946 1.643.129.154-.129-.153ZM1.548 5.598v-.2h-.2v.2h.2Zm11.597 0 .199.016.018-.216h-.217v.2Zm-.027.417h.2-.2Zm3.913 4.898h.2v-.161l-.159-.034-.041.195Zm5.425-4.907h.2-.2ZM18.066.8c-1.191 0-2.344.418-3.264 1.185l.257.307A4.688 4.688 0 0 1 18.065 1.2V.8Zm-3.264 1.185a5.223 5.223 0 0 0-1.776 3.017l.393.076a4.822 4.822 0 0 1 1.64-2.786l-.257-.307Zm-1.58 2.855H1.283v.4h11.94v-.4Zm-11.939 0c-.238 0-.483.174-.483.46h.4c0-.015.006-.027.017-.037a.1.1 0 0 1 .066-.023v-.4ZM.8 5.3v16.902h.4V5.3H.8Zm0 16.905a.75.75 0 0 0 .122.399l.335-.219A.35.35 0 0 1 1.2 22.2l-.4.006Zm.122.399a.74.74 0 0 0 .316.27l.163-.365a.338.338 0 0 1-.144-.124l-.335.219Zm.312.268a.784.784 0 0 0 .435.07l-.05-.396a.383.383 0 0 1-.213-.035l-.172.361Zm.435.07a.788.788 0 0 0 .405-.175l-.256-.308a.388.388 0 0 1-.199.087l.05.397Zm.406-.176 1.939-1.641-.259-.305-1.938 1.64.258.306Zm1.938-1.64a.16.16 0 0 1-.093.036l-.024-.399a.24.24 0 0 0-.14.056l.257.306Zm-.093.036a.16.16 0 0 1-.097-.025l.22-.335a.24.24 0 0 0-.147-.039l.024.4Zm-.114-.038 2.323 1.904.253-.31-2.323-1.903-.253.31ZM6.13 23.03c.14.112.314.172.493.171l-.003-.4a.384.384 0 0 1-.241-.084l-.249.313Zm.493.171a.783.783 0 0 0 .49-.177l-.253-.31a.383.383 0 0 1-.24.087l.003.4Zm.491-.178 2.29-1.897-.255-.308-2.29 1.897.255.308Zm2.291-1.898a.16.16 0 0 1-.094.037l-.022-.399a.24.24 0 0 0-.141.056l.257.306Zm-.094.037a.16.16 0 0 1-.098-.027l.223-.332a.239.239 0 0 0-.147-.04l.022.4Zm-.115-.039 2.297 1.903.255-.308-2.296-1.903-.256.308Zm2.3 1.904a.78.78 0 0 0 .489.174v-.4a.38.38 0 0 1-.239-.085l-.25.311Zm.49.174a.789.789 0 0 0 .492-.174l-.25-.312a.389.389 0 0 1-.243.086v.4Zm.493-.175 2.317-1.899-.254-.309-2.316 1.898.253.31Zm2.318-1.9a.16.16 0 0 1-.095.037l-.02-.4a.24.24 0 0 0-.141.056l.256.307Zm-.095.037a.16.16 0 0 1-.098-.027l.224-.331a.24.24 0 0 0-.146-.041l.02.4Zm-.115-.04 1.94 1.643.26-.305-1.942-1.643-.258.305Zm1.94 1.643a.768.768 0 0 0 .4.177l.051-.396a.368.368 0 0 1-.191-.085l-.26.304Zm.4.177a.765.765 0 0 0 .432-.07l-.175-.36a.365.365 0 0 1-.206.034l-.05.396Zm.429-.069a.726.726 0 0 0 .31-.274l-.34-.212a.326.326 0 0 1-.138.123l.168.363Zm.31-.274a.738.738 0 0 0 .112-.4l-.4.005a.337.337 0 0 1-.051.183l.339.212Zm.112-.397V10.997h-.4v11.205h.4Zm-.216-11.006c.185.015.328.024.494.024v-.4a5.39 5.39 0 0 1-.462-.023l-.032.4Zm.494.024c2.836 0 5.143-2.337 5.143-5.21h-.4c0 2.657-2.133 4.81-4.744 4.81v.4ZM23.2 6.01c0-1.38-.541-2.705-1.504-3.682l-.285.28A4.851 4.851 0 0 1 22.8 6.01h.4Zm-1.504-3.682A5.1 5.1 0 0 0 18.066.8v.4a4.7 4.7 0 0 1 3.345 1.408l.285-.28Zm-4.865 19.86a.198.198 0 0 1 .122-.182.17.17 0 0 1 .176.027l-.258.305a.23.23 0 0 0 .231.039.202.202 0 0 0 .128-.188h-.4Zm.298-.155-1.94-1.646-.258.305 1.94 1.646.258-.305Zm-1.941-1.648a.779.779 0 0 0-.493-.179l-.002.4c.087 0 .172.031.24.087l.255-.308Zm-.493-.179a.778.778 0 0 0-.495.175l.253.31a.378.378 0 0 1 .24-.085l.002-.4Zm-.495.175-2.316 1.899.254.31 2.315-1.9-.253-.309Zm-2.318 1.9a.162.162 0 0 1 .096-.037l.021.4a.239.239 0 0 0 .142-.057l-.259-.305Zm.096-.037a.16.16 0 0 1 .099.028l-.225.33c.043.03.095.044.147.041l-.021-.399Zm.114.039-2.296-1.902-.255.308 2.296 1.902.255-.308Zm-2.298-1.904a.782.782 0 0 0-.494-.174l.001.4c.088 0 .173.03.242.085l.25-.311Zm-.494-.174a.782.782 0 0 0-.492.177l.253.31a.382.382 0 0 1 .24-.087l-.001-.4Zm-.493.178-2.29 1.897.255.308 2.29-1.897-.255-.308Zm-2.291 1.898a.16.16 0 0 1 .094-.037l.022.4a.24.24 0 0 0 .14-.056l-.256-.307Zm.094-.037a.16.16 0 0 1 .097.026l-.22.334a.24.24 0 0 0 .145.04l-.022-.4Zm.114.038L4.4 20.38l-.254.31 2.323 1.903.254-.31Zm-2.325-1.905a.782.782 0 0 0-.497-.17l.005.4a.381.381 0 0 1 .242.083l.25-.313Zm-.497-.17a.782.782 0 0 0-.492.181l.256.307a.382.382 0 0 1 .24-.089l-.004-.4Zm-.493.182-1.946 1.644.259.305 1.945-1.643-.258-.306Zm-1.945 1.643a.17.17 0 0 1 .104-.04.19.19 0 0 1 .128.062c.02.023.052.068.052.134h-.4a.201.201 0 0 0 .158.197.254.254 0 0 0 .215-.046l-.257-.307Zm.284.156V5.597h-.4v16.591h.4Zm-.2-16.391h11.597v-.4H1.548v.4Zm11.397-.217c-.01.132-.027.28-.027.434h.4c0-.132.014-.254.026-.4l-.399-.034Zm-.027.434c0 1.194.403 2.351 1.144 3.279l.313-.25a4.851 4.851 0 0 1-1.057-3.029h-.4Zm1.144 3.279a5.118 5.118 0 0 0 2.927 1.815l.083-.391a4.718 4.718 0 0 1-2.697-1.674l-.313.25Zm2.769 1.62v11.275h.4V10.913h-.4Zm1.234-.65c-.828 0-1.638-.25-2.327-.717l-.224.331a4.544 4.544 0 0 0 2.551.786v-.4Zm-2.327-.717a4.244 4.244 0 0 1-1.544-1.91l-.37.15c.347.851.935 1.58 1.69 2.091l.224-.33Zm-1.544-1.91a4.321 4.321 0 0 1-.239-2.462l-.392-.077a4.72 4.72 0 0 0 .26 2.69l.371-.151Zm-.239-2.462a4.28 4.28 0 0 1 1.148-2.18l-.285-.281a4.68 4.68 0 0 0-1.255 2.384l.392.077Zm1.148-2.18a4.17 4.17 0 0 1 2.146-1.165l-.08-.392c-.89.18-1.709.624-2.35 1.276l.284.28Zm2.146-1.165a4.13 4.13 0 0 1 2.42.242l.154-.369a4.53 4.53 0 0 0-2.654-.265l.08.392Zm2.42.242c.765.322 1.42.867 1.88 1.568l.334-.22a4.606 4.606 0 0 0-2.06-1.717l-.155.37Zm1.88 1.568c.461.7.707 1.523.707 2.366h.4c0-.92-.268-1.82-.773-2.586l-.334.22Zm.707 2.366a4.297 4.297 0 0 1-1.23 3.01l.285.281a4.697 4.697 0 0 0 1.345-3.29l-.4-.001Zm-1.23 3.01a4.162 4.162 0 0 1-2.96 1.248v.4a4.563 4.563 0 0 0 3.245-1.367l-.285-.28Z" fill="#2F80ED" mask="url(#a)"/><path d="M17.9 4.032c.251 0 .491.089.669.245a.79.79 0 0 1 .277.59c0 .065.029.127.081.173a.297.297 0 0 0 .196.072.297.297 0 0 0 .196-.072.231.231 0 0 0 .081-.173c0-.306-.12-.603-.34-.84a1.549 1.549 0 0 0-.866-.459v-.323a.231.231 0 0 0-.082-.173.297.297 0 0 0-.196-.072.297.297 0 0 0-.196.072.231.231 0 0 0-.081.173v.318c-.37.058-.7.236-.93.499a1.218 1.218 0 0 0-.303.921c.033.33.205.637.481.861.277.224.638.348 1.013.348.187 0 .37.049.526.14a.866.866 0 0 1 .348.375c.071.153.09.32.054.482a.81.81 0 0 1-.26.428.99.99 0 0 1-.483.228 1.062 1.062 0 0 1-.546-.047.93.93 0 0 1-.425-.308.767.767 0 0 1-.159-.463.231.231 0 0 0-.081-.174.297.297 0 0 0-.196-.071.297.297 0 0 0-.196.071.231.231 0 0 0-.081.174c0 .282.102.557.292.784.19.228.456.396.761.48v.464c0 .065.03.127.081.173a.297.297 0 0 0 .196.072.297.297 0 0 0 .196-.072.231.231 0 0 0 .082-.173v-.408a1.582 1.582 0 0 0 1.008-.437c.259-.255.396-.59.382-.932a1.26 1.26 0 0 0-.458-.905 1.61 1.61 0 0 0-1.04-.371 1.01 1.01 0 0 1-.66-.249.788.788 0 0 1-.273-.586c0-.22.098-.43.273-.586a1.01 1.01 0 0 1 .66-.249Z" fill="#2F80ED"/></svg>