<svg width="36" height="24" fill="none" xmlns="http://www.w3.org/2000/svg"><path d="M13.45 14.533v-1.704a1.22 1.22 0 0 0-1.218-1.218 1.22 1.22 0 0 0-1.219 1.218v1.538a7.479 7.479 0 0 1-1.922 5.011l-1.71 1.9a.389.389 0 0 0 .578.52l1.71-1.9a8.255 8.255 0 0 0 2.122-5.53v-1.539a.441.441 0 0 1 .881 0v1.704a9.13 9.13 0 0 1-2.38 6.154L8.627 22.52a.389.389 0 0 0 .576.524l1.666-1.834a9.906 9.906 0 0 0 2.582-6.677Z" fill="#2F80ED"/><path d="M15.109 12.83a2.88 2.88 0 0 0-2.877-2.877 2.88 2.88 0 0 0-2.877 2.877v1.538a5.822 5.822 0 0 1-1.497 3.9L6.643 19.62a.389.389 0 0 0 .578.52l1.215-1.35a6.599 6.599 0 0 0 1.697-4.421v-1.539c0-1.157.942-2.099 2.1-2.099 1.157 0 2.098.942 2.098 2.1v1.703c0 2.694-.998 5.276-2.81 7.27l-1.406 1.547a.389.389 0 1 0 .575.523l1.406-1.547a11.562 11.562 0 0 0 3.013-7.793V12.83Z" fill="#2F80ED"/><path d="M16.766 12.83a4.54 4.54 0 0 0-4.535-4.537 4.54 4.54 0 0 0-4.536 4.536v1.538c0 1.033-.38 2.024-1.071 2.792l-1.095 1.216a.389.389 0 0 0 .578.52l1.095-1.216a4.943 4.943 0 0 0 1.27-3.312V12.83a3.762 3.762 0 0 1 3.759-3.758 3.762 3.762 0 0 1 3.758 3.758v1.704c0 3.108-1.152 6.086-3.242 8.386l-.39.427a.389.389 0 0 0 .576.524l.389-.428a13.217 13.217 0 0 0 3.444-8.91V12.83Z" fill="#2F80ED"/><path d="M6.037 12.83a.389.389 0 0 0 .778 0 5.41 5.41 0 0 1 1.338-3.561 5.418 5.418 0 0 1 3.304-1.801.389.389 0 1 0-.11-.77c-1.46.21-2.802.941-3.78 2.059a6.186 6.186 0 0 0-1.53 4.073ZM6.814 14.368a.389.389 0 1 0-.777 0c0 .622-.23 1.22-.645 1.681l-.974 1.082a.389.389 0 0 0 .578.52l.974-1.081a3.287 3.287 0 0 0 .844-2.202ZM17.662 17.838a.389.389 0 0 0-.475.278 14.14 14.14 0 0 1-.53 1.62.389.389 0 1 0 .722.286c.22-.556.409-1.13.56-1.71a.389.389 0 0 0-.277-.474ZM16.367 8.223a.389.389 0 1 0-.52.578 5.427 5.427 0 0 1 1.8 4.028v1.704c0 .646-.045 1.298-.133 1.936a.389.389 0 1 0 .77.106c.093-.673.14-1.36.14-2.042v-1.704c0-1.752-.75-3.431-2.057-4.606ZM14.551 7.935a.387.387 0 0 0 .518-.184.389.389 0 0 0-.184-.518 6.142 6.142 0 0 0-1.769-.535.389.389 0 1 0-.11.77 5.368 5.368 0 0 1 1.545.467Z" fill="#2F80ED"/><path d="M12.23 4.976a7.98 7.98 0 0 0-.437.012.389.389 0 0 0 .043.776 7.084 7.084 0 0 1 7.47 7.065v1.704a.389.389 0 1 0 .778 0v-1.704c0-4.33-3.523-7.853-7.854-7.853ZM7.98 7.086a.387.387 0 0 0 .223-.07 7.034 7.034 0 0 1 2.111-.998.389.389 0 0 0-.211-.749 7.81 7.81 0 0 0-2.344 1.109.389.389 0 0 0 .222.708ZM5.156 14.368V12.83c0-1.809.685-3.531 1.929-4.85a.389.389 0 0 0-.566-.534 7.82 7.82 0 0 0-2.14 5.384v1.538a.854.854 0 0 1-.22.572l-.48.532a.389.389 0 0 0 .579.52l.48-.532c.27-.3.418-.688.418-1.092ZM21.25 9.803A9.459 9.459 0 0 0 19.236 6.4a.389.389 0 1 0-.573.526 8.685 8.685 0 0 1 1.85 3.125.389.389 0 0 0 .737-.248ZM15.304 3.827a.389.389 0 1 0-.252.735 8.71 8.71 0 0 1 2.392 1.263.387.387 0 0 0 .544-.079.389.389 0 0 0-.079-.544 9.487 9.487 0 0 0-2.605-1.375Z" fill="#2F80ED"/><path d="M6.19 6.526a8.69 8.69 0 0 1 6.041-2.431c.42 0 .842.03 1.254.09a.388.388 0 1 0 .111-.77 9.6 9.6 0 0 0-1.365-.098c-2.461 0-4.798.94-6.579 2.648a9.466 9.466 0 0 0-2.923 6.432.389.389 0 1 0 .777.035A8.69 8.69 0 0 1 6.19 6.526Z" fill="#2F80ED"/><path d="M12.232 1.659c-.87 0-1.736.1-2.575.3a.389.389 0 1 0 .179.756c.78-.185 1.586-.279 2.396-.279 2.85 0 5.511 1.136 7.492 3.198a.387.387 0 0 0 .55.011.389.389 0 0 0 .011-.55 11.155 11.155 0 0 0-8.053-3.436ZM3.499 6.5a.387.387 0 0 0 .545-.066 10.46 10.46 0 0 1 4.219-3.21.389.389 0 0 0-.298-.718 11.24 11.24 0 0 0-4.533 3.449.389.389 0 0 0 .067.546ZM6.84 2.007a.387.387 0 0 0 .169-.038A11.913 11.913 0 0 1 12.231.778c.953 0 1.901.112 2.82.333a.389.389 0 0 0 .182-.756A12.844 12.844 0 0 0 12.23 0c-1.946 0-3.817.427-5.56 1.268a.389.389 0 0 0 .17.74ZM16.677 1.627c.4.16.797.343 1.179.545a.386.386 0 0 0 .525-.161.389.389 0 0 0-.161-.526c-.406-.215-.829-.41-1.256-.58a.389.389 0 1 0-.287.722Z" fill="#2F80ED"/></svg>