<svg width="46" height="46" fill="none" xmlns="http://www.w3.org/2000/svg"><g clip-path="url(#a)" fill="#2F80ED"><path d="M45.595 9.14 31.645 23l13.95 13.861c.253-.527.406-1.11.406-1.732V10.871c0-.622-.153-1.205-.406-1.732ZM41.957 6.828H4.043c-.623 0-1.205.153-1.732.405l17.83 17.741a4.046 4.046 0 0 0 5.717 0l17.83-17.74a3.996 3.996 0 0 0-1.731-.406ZM.405 9.14A3.996 3.996 0 0 0 0 10.87V35.13c0 .622.153 1.205.405 1.732l13.951-13.86L.406 9.138Z"/><path d="m29.738 24.906-1.974 1.974a6.745 6.745 0 0 1-9.529 0l-1.974-1.974-13.95 13.86c.527.253 1.11.406 1.732.406h37.914c.622 0 1.205-.153 1.732-.405L29.738 24.906Z"/></g><defs><clipPath id="a"><path fill="#fff" d="M0 0h46v46H0z"/></clipPath></defs></svg>