<svg width="36" height="24" fill="none" xmlns="http://www.w3.org/2000/svg"><path d="M16.836 4.798c-.556 0-1.109.087-1.637.261a7.17 7.17 0 0 0-1.805-1.007V3.33a2.33 2.33 0 1 0-4.66 0v.723a6.845 6.845 0 0 0-4.422 6.406v3.858a7.328 7.328 0 0 1-1.086 3.836l-1.184 1.925a.3.3 0 0 0-.006.296c.05.092.144.15.249.153h5.853C8.292 21.954 9.508 23 11.035 23h.047c1.527 0 2.743-1.046 2.898-2.473h5.853a.294.294 0 0 0 .243-.446l-1.183-1.926a7.377 7.377 0 0 1-1.02-2.877 5.291 5.291 0 0 0-1.037-10.48ZM9.305 3.33a1.76 1.76 0 0 1 3.519 0v.54a6.75 6.75 0 0 0-3.52 0v-.54Zm1.777 19.1h-.047c-1.205 0-2.17-.81-2.322-1.903h4.691c-.152 1.094-1.117 1.902-2.322 1.902Zm7.325-3.971.916 1.498H2.795l.917-1.498a7.922 7.922 0 0 0 1.17-4.142v-3.858c0-3.447 2.77-6.252 6.179-6.252A6.159 6.159 0 0 1 14.57 5.31a5.29 5.29 0 0 0 2.266 10.07c.16 0 .317-.004.473-.017a7.966 7.966 0 0 0 1.098 3.097Zm-1.571-3.65a4.72 4.72 0 0 1-1.653-9.142.284.284 0 0 0 .11-.04 4.72 4.72 0 1 1 1.543 9.181Z" fill="#2F80ED" stroke="#2F80ED" stroke-width=".15"/><path d="M16.85 8.45a.559.559 0 0 1 .557.559.296.296 0 0 0 .592 0 1.152 1.152 0 0 0-.804-1.097v-.216a.296.296 0 0 0-.593 0v.19a1.15 1.15 0 0 0 .247 2.273.558.558 0 1 1-.558.558.296.296 0 0 0-.592 0 1.152 1.152 0 0 0 .854 1.11v.31a.296.296 0 1 0 .592 0v-.31a1.15 1.15 0 0 0-.296-2.26.558.558 0 0 1 0-1.116Z" fill="#2F80ED"/></svg>