<svg width="38" height="38" fill="none" xmlns="http://www.w3.org/2000/svg"><g clip-path="url(#a)"><path d="m36.965 27.888-5.303-5.303c-1.894-1.894-5.114-1.136-5.871 1.326-.569 1.704-2.462 2.651-4.167 2.273-3.788-.947-8.901-5.872-9.848-9.849-.569-1.704.568-3.598 2.272-4.167 2.462-.757 3.22-3.977 1.326-5.87L10.071.993C8.556-.33 6.283-.33 4.957.994L1.36 4.593c-3.599 3.788.379 13.826 9.28 22.727 8.902 8.901 18.94 13.068 22.727 9.28l3.599-3.598c1.326-1.515 1.326-3.788 0-5.114Z" fill="#2F80ED"/></g><defs><clipPath id="a"><path fill="#fff" d="M0 0h38v38H0z"/></clipPath></defs></svg>