<svg width="36" height="24" fill="none" xmlns="http://www.w3.org/2000/svg"><path d="M22.626 7.553c-.638-3.164-2.924-5.208-5.823-5.208-1.529 0-3.183.591-4.8 1.714-1.64-1.173-3.265-1.767-4.833-1.767-2.916 0-5.192 2.067-5.798 5.265C.483 12.189 3.3 18.337 11.6 21.629a1.044 1.044 0 0 0 .801-.001c3.807-1.543 6.76-3.804 8.54-6.539 1.564-2.403 2.162-5.078 1.686-7.533v-.003Zm-2.313 7.127c-1.694 2.603-4.523 4.764-8.182 6.248a.59.59 0 0 1-.132.03.593.593 0 0 1-.133-.03c-7.893-3.136-10.588-8.903-9.758-13.23.267-1.406.885-2.585 1.787-3.41.893-.815 2.025-1.246 3.275-1.246 1.473 0 3.023.599 4.605 1.78a.375.375 0 0 0 .444.002c1.56-1.131 3.144-1.73 4.583-1.73 1.247 0 2.381.43 3.28 1.242.904.816 1.53 1.98 1.809 3.365.438 2.262-.122 4.74-1.578 6.98Z" fill="#2F80ED" stroke="#2F80ED" stroke-width=".15"/><path d="M7.956 5.06c-2.02 0-3.373 1.388-3.808 3.909a.375.375 0 0 0 .739.127c.258-1.5 1-3.286 3.07-3.286a.375.375 0 0 0 0-.75Z" fill="#2F80ED"/></svg>