<svg width="68" height="80" fill="none" xmlns="http://www.w3.org/2000/svg"><path opacity=".3" d="M47.67 7.753h7.093V3.516A3.519 3.519 0 0 0 51.192 0h-.023a3.463 3.463 0 0 0-3.499 3.514v4.239Z" fill="#2F80ED"/><path opacity=".5" d="M37.482 38.879a9.21 9.21 0 1 0 9.21-9.21 9.22 9.22 0 0 0-9.21 9.21Zm4.96-1.004a.99.99 0 0 1 1.4.007l1.852 1.87 3.852-3.85a.99.99 0 1 1 1.4 1.399l-4.555 4.596a1.032 1.032 0 0 1-.7.33h-.003a1.03 1.03 0 0 1-.7-.334l-2.553-2.598a1.015 1.015 0 0 1 .007-1.42Z" fill="#2F80ED"/><path opacity=".5" d="M14.914 3.278 14.7 42.496c3.184 0 13.382-.021 21.402-.021a10.963 10.963 0 0 1-.6-3.581c0-.215.007-.296.02-.626H17.857a.99.99 0 0 1 0-1.98h17.957c.191-.735.448-1.453.768-2.143H17.858a.99.99 0 0 1 0-1.98h19.935a12.21 12.21 0 0 1 2.185-2.144h-22.12a.99.99 0 0 1 0-1.98h24.6a1.034 1.034 0 0 1 .748.262 9.822 9.822 0 0 1 2.483-.56V3.516A5.257 5.257 0 0 1 46.925 0H18.28a3.314 3.314 0 0 0-3.366 3.278Zm28.533 21.63a.99.99 0 0 1-.99.99H17.858a.99.99 0 0 1 0-1.98h24.6a.99.99 0 0 1 .989.99ZM30.06 3.177a9.161 9.161 0 1 1-9.163 9.163 9.172 9.172 0 0 1 9.163-9.162Z" fill="#2F80ED"/><path d="M30.062 19.523a7.182 7.182 0 1 0-7.183-7.182 7.19 7.19 0 0 0 7.183 7.182Zm0-5.948a2.904 2.904 0 0 1-1.03-5.618v-.451a.99.99 0 1 1 1.979 0v.421a2.908 2.908 0 0 1 1.956 2.743.99.99 0 0 1-1.98 0 .926.926 0 1 0-.925.926 2.903 2.903 0 0 1 .784 5.7v.271a.99.99 0 0 1-1.98 0v-.421a2.907 2.907 0 0 1-1.71-2.645.99.99 0 1 1 1.98 0 .926.926 0 1 0 .926-.926Z" fill="#2F80ED"/><path d="M47.67 27.73c5.608.463 10.246 5.284 10.246 11.148 0 6.169-5.055 11.188-11.224 11.188a11.194 11.194 0 0 1-9.687-5.602c-9.712 0-23.299-.004-23.299-.004a.994.994 0 0 1-.701-.297.92.92 0 0 1-.288-.673l.16-29.634H0v41.897h67.299V13.856h-19.63v13.873Z" fill="#2F80ED"/><path opacity=".5" d="M0 57.732h67.299V67.3H0v-9.567ZM51.04 78.02h-6.492l-2.458-8.742H25.21l-2.458 8.742h-6.493a.99.99 0 0 0 0 1.98h34.782a.99.99 0 0 0 0-1.98Z" fill="#2F80ED"/></svg>