<svg width="36" height="24" fill="none" xmlns="http://www.w3.org/2000/svg"><path d="M12 14.194a.929.929 0 0 1-.633-.246.814.814 0 0 1-.263-.592.501.501 0 0 0-.161-.366.572.572 0 0 0-.39-.152.572.572 0 0 0-.391.152.5.5 0 0 0-.162.366c0 .406.142.801.403 1.126.261.324.628.56 1.045.673v.328a.5.5 0 0 0 .162.365A.572.572 0 0 0 12 16a.572.572 0 0 0 .39-.152.5.5 0 0 0 .162-.365v-.328a1.995 1.995 0 0 0 1.126-.78c.262-.379.37-.834.302-1.28a1.843 1.843 0 0 0-.668-1.153 2.08 2.08 0 0 0-1.312-.46.94.94 0 0 1-.498-.14.854.854 0 0 1-.33-.377.79.79 0 0 1-.05-.484.824.824 0 0 1 .245-.43.916.916 0 0 1 .458-.23.953.953 0 0 1 .518.049.886.886 0 0 1 .402.309c.098.137.15.3.15.465 0 .137.059.27.162.366a.572.572 0 0 0 .39.152.572.572 0 0 0 .391-.152.5.5 0 0 0 .162-.366c0-.406-.142-.801-.403-1.126a2.01 2.01 0 0 0-1.045-.673v-.328a.5.5 0 0 0-.162-.366A.572.572 0 0 0 12 8a.572.572 0 0 0-.39.151.5.5 0 0 0-.162.366v.328a1.995 1.995 0 0 0-1.126.78c-.262.379-.37.834-.302 1.28.067.448.304.857.668 1.153.364.296.83.46 1.312.46.236 0 .462.09.629.247.166.157.26.37.26.59a.812.812 0 0 1-.26.591.927.927 0 0 1-.629.248Z" fill="#2F80ED"/><path d="M3.435 14.772a.515.515 0 0 0 .418.228.497.497 0 0 0 .418-.227l2.343-3.505a.538.538 0 0 0-.155-.747.5.5 0 0 0-.263-.077H4.49C4.816 8.663 5.748 7.08 7.151 5.9c1.404-1.179 3.167-1.855 4.835-1.855 2.253 0 4.646 1.253 6.097 3.191a.514.514 0 0 0 .338.209.493.493 0 0 0 .381-.104.519.519 0 0 0 .195-.354.54.54 0 0 0-.11-.39C17.227 4.378 14.582 3 11.987 3c-1.9 0-3.895.76-5.478 2.09a8.771 8.771 0 0 0-3.05 5.354H1.508a.5.5 0 0 0-.263.076.52.52 0 0 0-.187.206.54.54 0 0 0 .032.542l2.345 3.504Zm1.793-3.281-1.375 2.057-1.377-2.057h2.752ZM17.354 13.274a.52.52 0 0 0 .187.206.5.5 0 0 0 .263.076h1.705c-.325 1.781-1.257 3.363-2.66 4.543-1.404 1.179-3.167 1.855-4.836 1.855-2.253 0-4.646-1.253-6.096-3.191a.513.513 0 0 0-.338-.208.495.495 0 0 0-.381.104.519.519 0 0 0-.194.353.539.539 0 0 0 .108.39C6.773 19.622 9.417 21 12.013 21c1.899 0 3.895-.76 5.477-2.09a8.77 8.77 0 0 0 3.05-5.354h1.952a.5.5 0 0 0 .263-.076.54.54 0 0 0 .155-.748l-2.345-3.505A.514.514 0 0 0 20.147 9a.497.497 0 0 0-.418.227l-2.343 3.504a.539.539 0 0 0-.032.543Zm2.793-2.822 1.377 2.057h-2.753l1.376-2.057Z" fill="#2F80ED"/></svg>