<svg width="36" height="24" fill="none" xmlns="http://www.w3.org/2000/svg"><path d="M20.762 3.776 12.137.4a.378.378 0 0 0-.274 0L3.238 3.776a.376.376 0 0 0-.237.378l1.125 14.25a.377.377 0 0 0 .17.285l7.5 4.875a.376.376 0 0 0 .409 0l7.5-4.875a.377.377 0 0 0 .17-.285l1.124-14.25a.376.376 0 0 0-.237-.378ZM19.141 18.16 12 22.803 4.86 18.16 3.77 4.373 12 1.153l8.23 3.22-1.09 13.788Z" fill="#2F80ED" stroke="#2F80ED" stroke-width=".2"/><path d="m19.207 4.76-7.07-2.74a.375.375 0 0 0-.272 0l-7.07 2.74a.374.374 0 0 0-.239.38l1.029 12.424a.375.375 0 0 0 .17.284l6.041 3.927a.376.376 0 0 0 .41 0l6.041-3.927a.376.376 0 0 0 .17-.284L19.444 5.14a.375.375 0 0 0-.238-.38Zm-1.523 12.559-5.683 3.694-5.684-3.694-.99-11.961L12 2.772l6.674 2.586-.99 11.961Z" fill="#2F80ED"/><path d="M16.546 7.83a1.125 1.125 0 0 0-1.59 0l-4.08 4.079-1.08-1.08a1.123 1.123 0 0 0-1.842.361 1.125 1.125 0 0 0 .251 1.23l1.875 1.875a1.125 1.125 0 0 0 1.591 0l4.875-4.875a1.125 1.125 0 0 0 0-1.59Zm-.53 1.06-4.875 4.875a.376.376 0 0 1-.53 0L8.734 11.89a.375.375 0 0 1 .53-.53l1.345 1.345a.376.376 0 0 0 .53 0l4.345-4.345a.375.375 0 0 1 .53.53Z" fill="#2F80ED"/></svg>