<svg width="24" height="24" fill="none" xmlns="http://www.w3.org/2000/svg"><g clip-path="url(#a)" fill="#2F80ED"><path d="M12.7 12.057v-.912h.214a2.047 2.047 0 0 0 2.044-2.044 2.047 2.047 0 0 0-2.044-2.045H11.44a.587.587 0 0 1 0-1.172h2.489V4.478h-1.23v-.912h-1.406v.918A1.995 1.995 0 0 0 9.447 6.47c0 1.099.894 1.993 1.993 1.993h1.474a.64.64 0 0 1 0 1.276H9.737v1.406h1.556v.912h1.406Z"/><path d="M19.81 7.812C19.81 3.504 16.306 0 12 0S4.187 3.504 4.187 7.812c0 3.56 2.396 6.572 5.66 7.51v2.727H7.338L12 24l4.659-5.951H14.15v-2.727c3.264-.937 5.66-3.95 5.66-7.51Zm-14.216 0a6.413 6.413 0 0 1 6.405-6.406 6.413 6.413 0 0 1 6.405 6.406A6.413 6.413 0 0 1 12 14.217a6.413 6.413 0 0 1-6.405-6.405Zm8.177 11.643-1.773 2.264-1.772-2.264h1.026v-3.868a7.873 7.873 0 0 0 1.492 0v3.868h1.027Z"/></g><defs><clipPath id="a"><path fill="#fff" d="M0 0h24v24H0z"/></clipPath></defs></svg>