<svg width="32" height="22" fill="none" xmlns="http://www.w3.org/2000/svg"><path d="M30.788 15.45h-1.924v.744h1.853c.784 0 1.283-.473 1.283-1.15 0-.677-.428-1.016-1.14-1.016h-.855c-.214 0-.357-.135-.357-.338s.143-.338.357-.338h1.639l.356-.745h-1.924c-.784 0-1.283.474-1.283 1.083 0 .677.428 1.015 1.14 1.015h.855c.214 0 .357.136.357.339.071.27-.072.406-.357.406Zm-3.492 0h-1.924v.744h1.853c.784 0 1.283-.473 1.283-1.15 0-.677-.428-1.016-1.14-1.016h-.856c-.214 0-.356-.135-.356-.338s.142-.338.356-.338h1.64l.356-.745h-1.924c-.784 0-1.283.474-1.283 1.083 0 .677.427 1.015 1.14 1.015h.855c.214 0 .357.136.357.339.07.27-.143.406-.357.406Zm-2.494-2.166v-.745h-2.994v3.588h2.994v-.745h-2.138v-.744h2.066v-.745h-2.066v-.677h2.138v.068Zm-4.846 0c.356 0 .498.203.498.406s-.142.406-.498.406h-1.07v-.88l1.07.068Zm-1.07 1.557h.428l1.14 1.286h1.07l-1.284-1.354c.642-.135.998-.541.998-1.083 0-.677-.499-1.15-1.282-1.15H17.96v3.587h.855l.071-1.286Zm-2.28-1.083c0 .27-.143.474-.5.474h-1.14v-.948h1.07c.356 0 .57.203.57.474Zm-2.495-1.219v3.588h.856v-1.219h1.14c.784 0 1.354-.473 1.354-1.218 0-.677-.499-1.218-1.283-1.218l-2.067.067Zm-1.283 3.588h1.07L12.4 14.299l1.497-1.76h-1.07l-.926 1.151-.926-1.15h-1.07l1.497 1.76-1.497 1.76h1.07l.926-1.152.927 1.219Zm-3.207-2.843v-.745H6.628v3.588h2.993v-.745H7.483v-.744H9.55v-.745H7.483v-.677h2.138v.068ZM26.94 6.92l1.496 2.166h1.07V5.5h-.856v2.369l-.213-.338L27.081 5.5h-1.14v3.587h.855V6.651l.143.27Zm-3.706-.067.285-.745.285.745.356.812h-1.282l.356-.812Zm1.496 2.233h.927L24.017 5.5h-1.14l-1.639 3.587h.927l.356-.744h1.853l.357.744Zm-3.99 0 .356-.744h-.214c-.642 0-.998-.406-.998-1.015V7.26c0-.61.357-1.015.998-1.015h.926V5.5h-.997c-1.14 0-1.782.745-1.782 1.76v.068c0 1.083.641 1.76 1.71 1.76Zm-3.208 0h.855v-3.52h-.855v3.52ZM15.68 6.245c.357 0 .5.203.5.406s-.143.406-.5.406H14.61v-.88l1.07.068ZM14.61 7.8h.428l1.14 1.286h1.07l-1.284-1.353c.642-.136.998-.542.998-1.083 0-.677-.499-1.151-1.283-1.151h-1.995v3.587h.855l.071-1.286Zm-1.568-1.556V5.5H10.05v3.587h2.993v-.744h-2.138v-.745h2.067v-.744h-2.067v-.677h2.138v.068ZM6.557 9.087h.784l1.069-2.91v2.91h.855V5.5H7.84l-.856 2.437L6.13 5.5H4.704v3.587h.855v-2.91l.998 2.91ZM1.924 6.854l.285-.745.285.745.357.812H1.568l.356-.812Zm1.497 2.233h.926L2.708 5.5H1.64L0 9.087h.927l.356-.744h1.853l.285.744Z" fill="#006FCF"/></svg>