<svg width="24" height="24" fill="none" xmlns="http://www.w3.org/2000/svg"><path d="M20.343 9.577c.616 0 1.117-.501 1.117-1.117V7.014c0-.459-.274-.865-.7-1.037l-8.376-3.424a1.112 1.112 0 0 0-.833-.002L3.17 5.977c-.426.172-.7.578-.7 1.037V8.46c0 .616.5 1.117 1.117 1.117h.67v8.415h-.67c-.616 0-1.117.501-1.117 1.117v1.303c0 .616.5 1.117 1.117 1.117h16.755c.616 0 1.117-.5 1.117-1.116v-1.304c0-.616-.5-1.117-1.117-1.117h-.67V9.577h.67Zm0 9.532c.001 1.333.004 1.303 0 1.303H3.588V19.11h16.755ZM5.375 17.992V9.577h1.266v8.415H5.375Zm2.383 0V9.577h2.458v8.415H7.758Zm3.575 0V9.577h1.266v8.415h-1.266Zm2.383 0V9.577h2.457v8.415h-2.457Zm3.574 0V9.577h1.266v8.415H17.29ZM3.588 8.46c0-1.558-.002-1.446.004-1.448l8.374-3.424 8.374 3.424c.005.002.003-.106.003 1.448H3.588Z" fill="#2F80ED"/><path d="M11.965 4.886a.559.559 0 0 0-.559.558v1.192a.559.559 0 0 0 1.117 0V5.444a.559.559 0 0 0-.558-.558Z" fill="#2F80ED"/></svg>