<svg width="32" height="32" fill="none" xmlns="http://www.w3.org/2000/svg"><path d="M30.009 11.932a1.878 1.878 0 0 0 1.875-1.876V7.628c0-.77-.461-1.453-1.175-1.74L16.645.138a1.867 1.867 0 0 0-1.4-.003L1.175 5.888A1.867 1.867 0 0 0 0 7.628v2.428c0 1.035.841 1.876 1.876 1.876H3V26.06H1.876A1.878 1.878 0 0 0 0 27.936v2.189C0 31.159.841 32 1.876 32h28.132a1.878 1.878 0 0 0 1.876-1.875v-2.189a1.878 1.878 0 0 0-1.876-1.875h-1.125V11.93h1.126Zm0 16.004c0 2.238.006 2.188 0 2.188H1.876v-2.188h28.133ZM4.876 26.061V11.93h2.126v14.13H4.876Zm4.002 0V11.93h4.126v14.13H8.878Zm6.001 0V11.93h2.126v14.13h-2.126Zm4.001 0V11.93h4.127v14.13H18.88Zm6.002 0V11.93h2.126v14.13h-2.126ZM1.876 10.056c0-2.616-.003-2.427.006-2.43l14.06-5.75 14.06 5.75c.01.003.007-.18.007 2.43H1.876Z" fill="#2F80ED"/><path d="M15.942 4.055a.938.938 0 0 0-.938.937v2.001a.938.938 0 0 0 1.875 0v-2a.938.938 0 0 0-.937-.938Z" fill="#2F80ED"/></svg>