<svg width="24" height="24" fill="none" xmlns="http://www.w3.org/2000/svg"><g clip-path="url(#a)" fill="#2F80ED"><path d="M21.673 3.978H2.327A2.33 2.33 0 0 0 0 6.304v11.392a2.33 2.33 0 0 0 2.327 2.327h19.346A2.33 2.33 0 0 0 24 17.696V6.304a2.33 2.33 0 0 0-2.327-2.326Zm.92 13.718c0 .508-.412.92-.92.92H2.327a.921.921 0 0 1-.92-.92V6.304c0-.507.412-.92.92-.92h19.346c.508 0 .92.413.92.92v11.392Z"/><path d="M2.813 11.01h5.86V6.79h-5.86v4.22Zm1.406-2.813h3.047v1.406H4.219V8.197ZM12.703 15.57h2.14v1.406h-2.14v-1.407ZM16.25 15.57h2.14v1.406h-2.14v-1.407ZM5.61 15.57h2.14v1.406H5.61v-1.407ZM9.156 15.57h2.141v1.406h-2.14v-1.407ZM15.264 6.79h4.813v1.407h-4.813V6.79ZM15.264 9.603h4.813v1.406h-4.813V9.603Z"/></g><defs><clipPath id="a"><path fill="#fff" d="M0 0h24v24H0z"/></clipPath></defs></svg>