<svg width="36" height="6" fill="none" xmlns="http://www.w3.org/2000/svg"><path d="M1.608.164H0v5.631h1.608c.85 0 1.464-.204 2.006-.645a2.816 2.816 0 0 0 1.024-2.16C4.628 1.321 3.39.164 1.608.164Zm1.29 4.239c-.349.307-.789.45-1.506.45h-.296V1.127h.296c.707 0 1.137.122 1.506.45.378.338.604.86.604 1.403 0 .542-.226 1.085-.604 1.423ZM6.234.164H5.14v5.631h1.095V.165ZM8.916 2.324c-.655-.245-.85-.41-.85-.706 0-.358.348-.625.82-.625.327 0 .603.133.88.461l.573-.747A2.476 2.476 0 0 0 8.681.082C7.687.082 6.92.778 6.92 1.7c0 .778.358 1.177 1.382 1.546.43.153.645.256.757.317a.685.685 0 0 1 .328.584c0 .46-.358.799-.85.799-.522 0-.942-.267-1.198-.748l-.706.686c.502.748 1.116 1.075 1.945 1.075 1.137 0 1.946-.758 1.946-1.853.02-.911-.359-1.32-1.608-1.782ZM10.887 2.99c0 1.659 1.3 2.938 2.969 2.938.471 0 .88-.092 1.372-.327V4.31c-.44.44-.83.614-1.32.614-1.107 0-1.895-.799-1.895-1.945 0-1.086.809-1.936 1.843-1.936.522 0 .921.185 1.372.635V.39c-.481-.246-.88-.348-1.351-.348-1.649 0-2.99 1.31-2.99 2.949ZM23.95 3.952 22.443.164h-1.198l2.386 5.775h.594L26.652.164h-1.188L23.95 3.952ZM27.152 5.795h3.113v-.952h-2.017V3.328h1.945v-.952h-1.945v-1.25h2.017V.165h-3.113v5.631ZM34.62 1.833c0-1.055-.726-1.659-1.996-1.659h-1.628v5.632h1.096V3.543h.143l1.515 2.263h1.352L33.33 3.43c.829-.174 1.29-.737 1.29-1.597Zm-2.21.932h-.318v-1.71h.337c.686 0 1.055.287 1.055.84 0 .563-.369.87-1.075.87Z" fill="#231F20"/><path d="M18.592 6a3 3 0 1 0 0-6 3 3 0 0 0 0 6Z" fill="url(#a)"/><path opacity=".65" d="M18.592 6a3 3 0 1 0 0-6 3 3 0 0 0 0 6Z" fill="url(#b)"/><path d="M35.317.38c0-.103-.072-.154-.184-.154h-.164v.491h.123V.523l.143.194h.143l-.163-.205c.06-.01.102-.061.102-.133Zm-.205.07h-.02V.319h.02c.061 0 .092.02.092.061 0 .051-.03.072-.092.072Z" fill="#231F20"/><path d="M35.153.041a.433.433 0 0 0-.43.43c0 .236.194.43.43.43.235 0 .43-.194.43-.43a.433.433 0 0 0-.43-.43Zm0 .788a.354.354 0 0 1-.348-.358c0-.194.153-.358.348-.358.184 0 .338.164.338.358 0 .195-.154.358-.338.358Z" fill="#231F20"/><defs><linearGradient id="a" x1="20.125" y1="5.401" x2="18.051" y2="2.154" gradientUnits="userSpaceOnUse"><stop stop-color="#F89F20"/><stop offset=".25" stop-color="#F79A20"/><stop offset=".533" stop-color="#F68D20"/><stop offset=".62" stop-color="#F58720"/><stop offset=".723" stop-color="#F48120"/><stop offset="1" stop-color="#F37521"/></linearGradient><linearGradient id="b" x1="19.798" y1="5.357" x2="16.767" y2="-.567" gradientUnits="userSpaceOnUse"><stop stop-color="#F58720"/><stop offset=".359" stop-color="#E16F27"/><stop offset=".703" stop-color="#D4602C"/><stop offset=".982" stop-color="#D05B2E"/></linearGradient></defs></svg>