<svg width="22" height="32" fill="none" xmlns="http://www.w3.org/2000/svg"><path d="M11.934 16.076V14.86h.286a2.729 2.729 0 0 0 2.726-2.726 2.729 2.729 0 0 0-2.726-2.726h-1.966a.782.782 0 0 1 0-1.563h3.319V5.97h-1.64V4.755H10.06v1.223a2.66 2.66 0 0 0-2.461 2.649 2.66 2.66 0 0 0 2.656 2.656h1.966a.852.852 0 0 1 0 1.702H7.984v1.875h2.075v1.216h1.875Z" fill="#2F80ED"/><path d="M21.415 10.415C21.415 4.672 16.742 0 10.999 0S.584 4.672.584 10.415c0 4.748 3.193 8.764 7.545 10.013v3.637H4.786L11 32l6.212-7.935h-3.343v-3.636c4.353-1.249 7.547-5.265 7.547-10.014Zm-18.956 0c0-4.709 3.831-8.54 8.54-8.54 4.71 0 8.54 3.831 8.54 8.54 0 4.71-3.83 8.54-8.54 8.54-4.709 0-8.54-3.83-8.54-8.54ZM13.362 25.94 11 28.959l-2.364-3.02h1.369v-5.156a10.464 10.464 0 0 0 1.99 0v5.157h1.368Z" fill="#2F80ED"/></svg>