<svg width="22" height="22" fill="none" xmlns="http://www.w3.org/2000/svg"><path d="M13.476 6.706H8.518v8.91h4.958v-8.91Z" fill="#FF5F00"/><path d="M8.839 11.167a5.657 5.657 0 0 1 2.164-4.455 5.667 5.667 0 1 0 0 8.91 5.657 5.657 0 0 1-2.164-4.455Z" fill="#EB001B"/><path d="M20.167 11.167a5.667 5.667 0 0 1-9.169 4.455 5.668 5.668 0 0 0 0-8.91 5.667 5.667 0 0 1 9.169 4.455ZM19.633 14.674v-.182h.074v-.038h-.188v.038h.074v.182h.04Zm.364 0v-.22h-.057l-.067.151-.066-.15h-.057v.22h.04v-.167l.063.143h.042l.061-.143v.166h.041Z" fill="#F79E1B"/></svg>