<svg width="24" height="24" fill="none" xmlns="http://www.w3.org/2000/svg"><g clip-path="url(#a)" fill="#2F80ED"><path d="M22.236 5.617a4.814 4.814 0 0 0-.78-.763 8.79 8.79 0 0 1-.202 2.308c-.476 2.227-1.613 4.12-3.288 5.473-1.674 1.352-3.764 2.066-6.044 2.066H8.596L7.52 19.744a2.17 2.17 0 0 1-2.111 1.708h-1.5l-.27 1.24A1.08 1.08 0 0 0 4.695 24H8.36c.51 0 .95-.356 1.056-.854l1.258-5.897h4.199c2.03 0 3.886-.632 5.366-1.827 1.481-1.196 2.488-2.876 2.91-4.858.43-2.005.122-3.67-.912-4.947Z"/><path d="m6.463 19.519 1.26-5.897h4.198c2.03 0 3.886-.632 5.366-1.827 1.48-1.196 2.487-2.876 2.91-4.859.429-2.004.122-3.669-.912-4.947C18.293.762 16.597 0 14.86 0H5.71a1.08 1.08 0 0 0-1.054.85L.689 19.063a1.08 1.08 0 0 0 1.054 1.309h3.665c.51 0 .949-.356 1.055-.854Zm3.359-15.37H12.7c.677 0 1.283.284 1.661.779.402.525.52 1.252.323 1.994l-.007.029c-.362 1.528-1.868 2.771-3.356 2.771H8.563l1.259-5.573Z"/></g><defs><clipPath id="a"><path fill="#fff" d="M0 0h24v24H0z"/></clipPath></defs></svg>