<svg width="30" height="30" fill="none" xmlns="http://www.w3.org/2000/svg"><path d="M27.794 7.02a6.025 6.025 0 0 0-.976-.952c.05.903-.035 1.866-.252 2.885-.595 2.784-2.016 5.15-4.11 6.84-2.092 1.69-4.705 2.584-7.556 2.584h-4.156L9.398 24.68a2.712 2.712 0 0 1-2.638 2.135H4.886l-.338 1.55A1.35 1.35 0 0 0 5.867 30h4.58c.637 0 1.187-.445 1.32-1.067l1.573-7.372h5.248c2.539 0 4.859-.79 6.709-2.283 1.85-1.495 3.108-3.595 3.637-6.073.536-2.506.152-4.587-1.14-6.184Z" fill="#2F80ED"/><path d="m8.08 24.399 1.573-7.372H14.9c2.538 0 4.858-.79 6.708-2.284 1.85-1.494 3.109-3.594 3.638-6.073.535-2.505.152-4.586-1.14-6.183C22.867.953 20.746 0 18.573 0H7.14A1.35 1.35 0 0 0 5.82 1.062L.86 23.83a1.349 1.349 0 0 0 1.318 1.636H6.76A1.35 1.35 0 0 0 8.08 24.4Zm4.197-19.213h3.598c.847 0 1.603.355 2.077.974.502.657.65 1.565.403 2.493l-.01.035c-.452 1.91-2.334 3.464-4.194 3.464h-3.448l1.574-6.966Z" fill="#2F80ED"/></svg>