<svg width="22" height="8" fill="none" xmlns="http://www.w3.org/2000/svg"><path d="M7.81.245 6.605 7.74H8.53L9.734.245H7.81Zm5.807 3.053c-.673-.332-1.085-.557-1.085-.896.008-.31.348-.626 1.109-.626a3.35 3.35 0 0 1 1.434.278l.175.078.261-1.569a4.86 4.86 0 0 0-1.727-.309c-1.902 0-3.24.989-3.249 2.403-.015 1.043.959 1.622 1.688 1.97.744.355.998.586.998.903-.008.486-.602.71-1.156.71-.768 0-1.181-.115-1.807-.386l-.254-.116-.269 1.63c.452.201 1.284.378 2.147.387 2.02 0 3.336-.973 3.352-2.48.007-.827-.507-1.46-1.617-1.977Zm6.83-3.03h-1.49c-.458 0-.807.132-1.006.603l-2.86 6.87h2.02l.557-1.488h2.26l.29 1.493H22L20.447.268ZM18.23 4.752c.039.004.775-2.428.775-2.428l.587 2.428h-1.362ZM4.996.245 3.11 5.337l-.205-1.004C2.556 3.174 1.462 1.915.242 1.289L1.97 7.733h2.037L7.034.245H4.996Z" fill="#2394BC"/></svg>