<svg width="16" height="16" fill="none" xmlns="http://www.w3.org/2000/svg"><g clip-path="url(#a)"><path d="m.142 13.496 6.95-12.041a1.048 1.048 0 0 1 1.815 0l6.951 12.041a1.049 1.049 0 0 1-.907 1.573H1.049c-.806 0-1.31-.875-.907-1.573ZM7.99 5.163a.794.794 0 0 0-.793.816l.131 4.572a.666.666 0 0 0 1.33 0l.128-4.572a.797.797 0 0 0-.796-.816ZM8 13.434a.826.826 0 1 0-.001-1.652A.826.826 0 0 0 8 13.434Z" fill="#EB5757"/></g><defs><clipPath id="a"><path fill="#fff" transform="matrix(-1 0 0 1 16 0)" d="M0 0h16v16H0z"/></clipPath></defs></svg>