<svg width="36" height="24" fill="none" xmlns="http://www.w3.org/2000/svg"><path d="M10.895 7.899a1.421 1.421 0 0 0-2.628 1.067c-.318.616-1.868 3.439-4.098 4.507l-3.17 1.519a1.527 1.527 0 0 0-.717 2.034l1.04 2.17a1.525 1.525 0 0 0 2.033.717l.196-.094 2.343 2.543a1.499 1.499 0 0 0 1.112.487 1.498 1.498 0 0 0 1.065-.44 1.515 1.515 0 0 0 .08-2.056 10.497 10.497 0 0 1-1.365-2.075c2.3-.96 5.186-.398 5.82-.256a1.42 1.42 0 0 0 2.48-1.376l-4.19-8.747Zm-6.737 6.203 1.871 3.906-2.274 1.09-1.871-3.906 2.274-1.09Zm-1.781 5.343a.957.957 0 0 1-.548-.492l-1.04-2.17a.963.963 0 0 1 .452-1.284l.136-.064 1.87 3.906-.135.064a.955.955 0 0 1-.735.04Zm5.297 2.565a.949.949 0 0 1-1.366-.03l-2.226-2.415 2.194-1.051c.418.826.927 1.602 1.449 2.206a.95.95 0 0 1-.05 1.29ZM6.54 17.77l-1.877-3.917c1.955-1.059 3.34-3.243 3.9-4.246l3.724 7.774c-1.12-.207-3.627-.51-5.747.39Zm7.636.264a.859.859 0 0 1-1.146-.403L8.84 8.884a.859.859 0 0 1 1.549-.742l4.19 8.747a.86.86 0 0 1-.403 1.145Z" fill="#2F80ED" stroke="#2F80ED" stroke-width=".2"/><path d="M20.656 5.292a4.808 4.808 0 1 0 2.739 2.458 4.776 4.776 0 0 0-2.74-2.458Zm.237 8.364a4.246 4.246 0 1 1 1.994-5.664 4.219 4.219 0 0 1-1.994 5.664Z" fill="#2F80ED"/><path d="M19 9.708a.891.891 0 1 1 .42-1.188.281.281 0 0 0 .507-.243 1.455 1.455 0 0 0-1.72-.767l-.189-.395a.281.281 0 0 0-.507.243l.197.411a1.454 1.454 0 0 0 1.536 2.447.89.89 0 1 1-.42 1.188.281.281 0 0 0-.506.243 1.455 1.455 0 0 0 1.626.791l.164.342a.281.281 0 1 0 .507-.243l-.156-.325A1.454 1.454 0 0 0 19 9.708ZM13 7.704a1.256 1.256 0 1 0 0-2.512 1.256 1.256 0 0 0 0 2.512Zm0-1.95a.694.694 0 1 1 0 1.388.694.694 0 0 1 0-1.388ZM21.671 14.35a1.63 1.63 0 1 0 0 3.26 1.63 1.63 0 0 0 0-3.26Zm0 2.698a1.068 1.068 0 1 1 0-2.137 1.068 1.068 0 0 1 0 2.137ZM17.32 15.354a1.29 1.29 0 1 0 0 2.58 1.29 1.29 0 0 0 0-2.58Zm0 2.016a.726.726 0 1 1 0-1.452.726.726 0 0 1 0 1.452ZM17.797 4.714a1.781 1.781 0 1 0 0-3.562 1.781 1.781 0 0 0 0 3.562Zm0-3a1.219 1.219 0 1 1 0 2.438 1.219 1.219 0 0 1 0-2.438Z" fill="#2F80ED"/></svg>