<svg width="36" height="24" fill="none" xmlns="http://www.w3.org/2000/svg"><g clip-path="url(#a)" fill="#2F80ED"><path d="M18.613 8.694 14.195 3.81a.313.313 0 0 0-.232-.105h-1.651V.313a.313.313 0 0 0-.626 0v3.391h-1.65a.313.313 0 0 0-.233.105l-4.41 4.885a.306.306 0 0 0-.072.21v14.783a.305.305 0 0 0 .083.221.294.294 0 0 0 .213.092h12.764c.173 0 .313-.14.313-.313V8.904a.314.314 0 0 0-.081-.21ZM5.947 23.374V9.024l4.227-4.694h1.512v2.948a1.97 1.97 0 1 0 .626 0V4.33h1.511l4.244 4.694v14.35H5.947Zm5.94-15.49a.31.31 0 0 0 .223 0 1.343 1.343 0 1 1-.222 0Z" stroke="#2F80ED" stroke-width=".2"/><path d="M14.922 19.878H9.08a.313.313 0 0 0 0 .626h5.843a.313.313 0 0 0 0-.626ZM14.922 21.443H9.08a.313.313 0 0 0 0 .626h5.843a.313.313 0 0 0 0-.626ZM12 17.58a.936.936 0 0 1-.934-.934.313.313 0 0 0-.626 0c0 .74.522 1.38 1.248 1.53v.554a.313.313 0 0 0 .626 0v-.555a1.561 1.561 0 0 0-.313-3.09.935.935 0 1 1 .935-.935.313.313 0 0 0 .626 0 1.564 1.564 0 0 0-1.248-1.53v-.464a.313.313 0 0 0-.626 0v.464A1.561 1.561 0 0 0 12 15.71a.935.935 0 1 1 0 1.87Z"/></g><defs><clipPath id="a"><path fill="#fff" d="M0 0h24v24H0z"/></clipPath></defs></svg>