<svg width="36" height="24" fill="none" xmlns="http://www.w3.org/2000/svg"><g clip-path="url(#a)" fill="#2F80ED"><path d="M11.995 9.821a6.218 6.218 0 1 0 6.218 6.218 6.225 6.225 0 0 0-6.218-6.218Zm0 11.818a5.6 5.6 0 1 1 5.6-5.6 5.606 5.606 0 0 1-5.6 5.6Z"/><path d="M17.553 10.345V7.583h1.21a.309.309 0 0 0 .228-.516l-2.116-2.328a.31.31 0 0 0-.457 0l-2.116 2.328a.308.308 0 0 0 .228.516h1.12v1.385a7.897 7.897 0 0 0-2.368-.785V4.29h2.053a.309.309 0 0 0 .228-.516L12.224.1a.308.308 0 0 0-.457 0L8.43 3.774a.31.31 0 0 0 .228.516h1.95V8.2a7.902 7.902 0 0 0-2.367.822V7.583h1.222a.309.309 0 0 0 .228-.516L7.574 4.739a.31.31 0 0 0-.457 0L5.001 7.067a.309.309 0 0 0 .228.516h1.107v2.864a7.935 7.935 0 0 0-2.3 5.592c0 4.39 3.57 7.961 7.96 7.961 4.39 0 7.96-3.571 7.96-7.96a7.937 7.937 0 0 0-2.403-5.695Zm-1.595-3.38h-.73l1.418-1.56 1.418 1.56h-.82a.309.309 0 0 0-.308.31V9.8a7.978 7.978 0 0 0-.67-.477v-2.05a.309.309 0 0 0-.308-.308Zm-5.043-3.292h-1.56l2.64-2.905 2.642 2.905h-1.664a.309.309 0 0 0-.308.308v4.126a8.004 8.004 0 0 0-1.441.009V3.98a.309.309 0 0 0-.309-.308ZM5.927 6.966l1.419-1.56 1.418 1.56H7.93a.309.309 0 0 0-.309.308v2.117a8.092 8.092 0 0 0-.669.493v-2.61a.309.309 0 0 0-.309-.308h-.717Zm6.069 16.417c-4.05 0-7.343-3.295-7.343-7.344s3.294-7.343 7.343-7.343c4.049 0 7.343 3.294 7.343 7.343 0 4.05-3.294 7.344-7.343 7.344Z"/><path d="M11.996 12.909c.768 0 1.39.623 1.39 1.39a.309.309 0 0 0 .618 0 2.012 2.012 0 0 0-1.7-1.984v-.667a.309.309 0 1 0-.617 0v.667a2.008 2.008 0 0 0 .309 3.993 1.39 1.39 0 1 1-1.39 1.39.309.309 0 1 0-.618 0c.001.99.722 1.832 1.7 1.985v.713a.309.309 0 1 0 .617 0v-.713a2.009 2.009 0 0 0-.309-3.993 1.39 1.39 0 0 1 0-2.782Z"/></g><defs><clipPath id="a"><path fill="#fff" d="M0 0h24v24H0z"/></clipPath></defs></svg>