<svg width="24" height="24" fill="none" xmlns="http://www.w3.org/2000/svg"><path d="M16.545 10h-1.09a.435.435 0 0 0-.322.146.526.526 0 0 0-.133.354c0 .133.048.26.133.354a.435.435 0 0 0 .322.146h1.09c.12 0 .236-.053.322-.146A.526.526 0 0 0 17 10.5a.526.526 0 0 0-.133-.354.435.435 0 0 0-.322-.146Z" fill="#2F80ED"/><path d="M22.705 2h-1.693c-1.05 0-1.945.77-2.113 1.817l-.377 2.303h-3.14c-.533-1.936-2.315-3.41-4.426-3.41-2.11 0-3.893 1.474-4.426 3.41H2.295a.3.3 0 0 0-.238.125.307.307 0 0 0-.044.268l2.802 9.08a.292.292 0 0 0 .281.206h11.835l-.46 2.805a.322.322 0 0 1-.317.272h-.712a1.84 1.84 0 0 0-1.814-1.584 1.84 1.84 0 0 0-1.815 1.584H9.206a1.838 1.838 0 0 0-1.993-1.574 1.847 1.847 0 0 0-1.653 1.935A1.842 1.842 0 0 0 7.392 21a1.818 1.818 0 0 0 1.805-1.528h2.626a1.839 1.839 0 0 0 1.805 1.526c.888 0 1.648-.643 1.805-1.526h.72a.908.908 0 0 0 .899-.766L19.48 3.917a1.56 1.56 0 0 1 1.531-1.321h1.693A.296.296 0 0 0 23 2.298.296.296 0 0 0 22.705 2ZM7.392 20.408a1.251 1.251 0 0 1-1.245-1.258 1.25 1.25 0 0 1 1.245-1.257 1.25 1.25 0 0 1 1.244 1.257c0 .694-.557 1.257-1.244 1.258Zm6.236 0a1.251 1.251 0 0 1-1.244-1.258 1.25 1.25 0 0 1 1.244-1.257c.687 0 1.245.563 1.245 1.257-.001.695-.558 1.257-1.245 1.258ZM7.05 6.485a4.047 4.047 0 0 1 .862-1.747l.362.366c-.48.58-.761 1.303-.801 2.058H6.96c.01-.225.04-.45.088-.67l.001-.007Zm3.906 3.8c-1.601 0-2.9-1.312-2.9-2.93s1.3-2.93 2.9-2.93c1.602 0 2.9 1.312 2.9 2.93-.002 1.618-1.3 2.928-2.9 2.93ZM13.2 4.659a3.453 3.453 0 0 0-2.126-.826v-.517a3.959 3.959 0 0 1 2.488.977l-.362.366Zm-2.715-.796a3.459 3.459 0 0 0-1.798.817l-.362-.366a3.964 3.964 0 0 1 2.16-.972v.52ZM7.49 7.758a3.53 3.53 0 0 0 .798 1.865l-.362.366a4.044 4.044 0 0 1-.95-2.231h.514Zm1.214 2.287a3.457 3.457 0 0 0 1.782.803v.52a3.965 3.965 0 0 1-2.144-.957l.362-.366Zm2.371.832a3.451 3.451 0 0 0 2.11-.812l.362.366a3.957 3.957 0 0 1-2.472.963v-.517Zm2.891-.864-.362-.366c.454-.533.738-1.191.818-1.89h.515a4.046 4.046 0 0 1-.97 2.256Zm.896-3.529.002.01c.047.22.077.443.087.668h-.511a3.53 3.53 0 0 0-.822-2.082l.362-.366c.435.507.738 1.115.882 1.77Zm-9.55 8.72L2.696 6.714H6.41a4.655 4.655 0 0 0 2.074 4.538 4.55 4.55 0 0 0 4.947 0 4.656 4.656 0 0 0 2.073-4.538h2.92l-1.394 8.488H5.313Z" fill="#2F80ED" stroke="#2F80ED" stroke-width=".2"/><path d="M10.91 6.022c.367 0 .665.23.665.514 0 .16.167.288.373.288.205 0 .372-.129.372-.288-.001-.52-.476-.967-1.136-1.068v-.18c0-.16-.166-.288-.372-.288-.205 0-.372.129-.372.288v.221c-.647.177-1.036.689-.92 1.212.117.523.703.905 1.39.905.367 0 .665.23.665.514 0 .284-.298.514-.665.514-.367 0-.665-.23-.665-.514 0-.159-.167-.287-.373-.287-.205 0-.372.128-.372.287 0 .462.377.873.94 1.028v.244c0 .16.167.288.372.288.206 0 .373-.129.373-.288V9.21c.71-.11 1.199-.618 1.128-1.175-.071-.558-.678-.983-1.403-.983-.367 0-.665-.23-.665-.515 0-.284.298-.514.665-.514Z" fill="#2F80ED"/></svg>