<svg width="87" height="85" fill="none" xmlns="http://www.w3.org/2000/svg"><path d="M64.499 84.252c.934 0 1.848-.285 2.625-.82a4.842 4.842 0 0 0 1.74-2.185c.358-.89.452-1.869.27-2.813a4.916 4.916 0 0 0-1.294-2.493 4.683 4.683 0 0 0-2.42-1.332 4.596 4.596 0 0 0-2.73.277 4.759 4.759 0 0 0-2.12 1.793c-.52.8-.797 1.742-.797 2.705a4.95 4.95 0 0 0 1.386 3.44 4.661 4.661 0 0 0 3.34 1.428Z" fill="#2F80ED"/><path d="M38.216 79.384c0-.963-.277-1.904-.796-2.705a4.76 4.76 0 0 0-2.12-1.793 4.596 4.596 0 0 0-2.73-.277 4.683 4.683 0 0 0-2.42 1.332 4.916 4.916 0 0 0-1.294 2.493 5.007 5.007 0 0 0 .27 2.813 4.84 4.84 0 0 0 1.74 2.185c.777.535 1.69.82 2.625.82a4.661 4.661 0 0 0 3.34-1.427 4.95 4.95 0 0 0 1.385-3.441ZM69.88 22.454c2.248.816 4.702.803 6.942-.035a10.38 10.38 0 0 0 5.344-4.565 10.886 10.886 0 0 0 1.321-7.022 10.712 10.712 0 0 0-3.303-6.292 10.145 10.145 0 0 0-6.426-2.704 10.095 10.095 0 0 0-6.633 2.11 10.641 10.641 0 0 0-3.828 5.967 10.91 10.91 0 0 0 .714 7.115c.582 1.259 1.4 2.387 2.407 3.318a10.175 10.175 0 0 0 3.462 2.108Z" fill="#97BFF6"/><rect x="69" y="7.283" width="10.3" height="2.289" rx="1" transform="rotate(-45 69 7.283)" fill="#fff"/><rect x="76.441" y="9" width="10.3" height="2.289" rx="1" transform="rotate(-135 76.441 9)" fill="#fff"/><path d="M78.33 24.05a11.847 11.847 0 0 1-9.591.545c-2.614-.948-4.8-2.595-6.298-5.104H60l-8 20.045c.457.992 11.352-7.322 11-6.285 1.5-.515-15.334-7.695-16.291-7.212-.855.421 12.84 9.968 11.923 9.72a4.002 4.002 0 0 1-2.261-1.625c-1.794-.4-8.415-1.63-13.858.507a26.572 26.572 0 0 0 3.179 4.895 4.45 4.45 0 0 1 1.017 3.008 4.43 4.43 0 0 1-1.237 2.92c-.39.403-.855.724-1.367.942-.512.218-1.06.33-1.614.327h-.093c-.57-.011-1.131-.141-1.65-.382a4.197 4.197 0 0 1-1.37-1.022l-5.705-6.381-.218.107c-1.02.503 1.066-4.026 0-4.414-1.066-.387-1.467-.854-1.955-1.905l-4.352-9.788c-.487-1.053-2.553 6.129-2.177 5.029a4.367 4.367 0 0 1 2.177-2.509L36 49.736c1.055-.546 31.5-5.667 24-30.245H16.836l-1.674-9.085a1.175 1.175 0 0 0-.386-.68 1.113 1.113 0 0 0-.718-.271H1.124c-.298 0-.584.122-.795.339-.21.217-.329.511-.329.819 0 .307.118.601.33.819.21.217.496.339.794.339h12.004l8.902 48.301a9.73 9.73 0 0 0 3.221 5.632 9.218 9.218 0 0 0 5.963 2.233h43.032c.298 0 .584-.122.794-.34.211-.216.33-.511.33-.818 0-.307-.119-.602-.33-.82a1.107 1.107 0 0 0-.794-.338H31.214a7 7 0 0 1-4.529-1.695 7.388 7.388 0 0 1-2.447-4.276l-1.671-9.084H75.88L86.149 19.49H83.38a12.723 12.723 0 0 1-5.052 4.56Z" fill="#2F80ED"/></svg>