<svg width="57" height="60" fill="none" xmlns="http://www.w3.org/2000/svg"><path d="M57 39.67 19.314 0H0l57 60V39.67Z" fill="#EB5757"/><path d="M21.324 12.837c-.862.809-1.724 1.217-2.588 1.224-.864.008-1.67-.387-2.419-1.185-.749-.797-1.092-1.627-1.03-2.488.061-.862.525-1.7 1.391-2.513s1.728-1.22 2.584-1.22c.862-.001 1.668.398 2.419 1.198.75.8 1.094 1.627 1.03 2.482-.061.857-.524 1.69-1.387 2.502Zm-3.567-3.798c-.581.546-.915 1.067-1.002 1.564-.087.497.075.965.488 1.404.826.88 1.824.771 2.994-.327 1.173-1.1 1.348-2.089.525-2.965-.412-.439-.871-.63-1.377-.575-.504.053-1.046.353-1.628.899Zm6.305 11.943-1.316-1.402 1.81-5.961-.03-.032a36.158 36.158 0 0 1-1.424 1.465l-2.449 2.3-.926-.987 5.204-4.886 1.307 1.391-1.775 5.92.023.026a43.392 43.392 0 0 1 1.385-1.4l2.463-2.314.932.993-5.203 4.887Zm7.342 4.922c-.47.441-1 .619-1.589.534-.587-.083-1.163-.426-1.73-1.029-.52-.555-.877-1.144-1.07-1.768l1.025-.962c.174.498.342.898.505 1.2.165.305.343.558.532.76.228.242.448.384.66.425.216.043.415-.02.597-.192a.614.614 0 0 0 .19-.34c.028-.132.026-.289-.005-.47-.03-.178-.122-.512-.28-1.003-.149-.459-.23-.832-.24-1.12-.012-.288.029-.566.122-.832.094-.267.263-.515.507-.744.46-.433.968-.617 1.523-.553.558.065 1.095.374 1.612.924.254.27.464.558.63.863.167.307.319.649.454 1.026l-1.192.45a7.074 7.074 0 0 0-.41-.915 3.013 3.013 0 0 0-.433-.597c-.197-.209-.396-.323-.598-.343a.66.66 0 0 0-.538.19.66.66 0 0 0-.192.308 1.073 1.073 0 0 0-.01.41c.027.163.126.51.296 1.043.224.705.303 1.258.238 1.659-.064.398-.265.757-.604 1.076Zm2.432 5.486.884-1.54-1.781-1.898-1.593.786-1.117-1.189 6.95-3.07 1.267 1.35-3.494 6.75-1.116-1.19Zm1.563-2.673c.794-1.403 1.244-2.196 1.349-2.38.107-.18.194-.32.262-.42-.377.207-1.34.689-2.885 1.444l1.273 1.356Zm.172 4.52 5.204-4.887 1.036 1.104-4.293 4.03 1.982 2.112-.911.855-3.018-3.214Zm6.685 7.119-2.815-2.997 5.204-4.887 2.815 2.997-.904.85-1.779-1.894-1.142 1.073 1.654 1.762-.904.849-1.654-1.762-1.342 1.26 1.778 1.893-.911.856Z" fill="#fff"/></svg>