<svg width="57" height="60" fill="none" xmlns="http://www.w3.org/2000/svg"><path d="M57 39.67 19.314 0H0l57 60V39.67Z" fill="#BDBDBD"/><path d="m18.14 9.155.341.363c.319.339.624.53.915.574.293.042.568-.058.825-.299.258-.243.383-.493.372-.751-.008-.256-.154-.535-.436-.836l-.472-.502-1.545 1.45Zm3.166 1.716c-.56.526-1.153.752-1.78.68-.624-.07-1.239-.429-1.845-1.074l-.445-.473-1.85 1.738-1.037-1.104 5.204-4.887 1.561 1.663c.593.631.906 1.238.941 1.822.04.584-.21 1.129-.749 1.635Zm1.272 2.73.334.357c.328.348.627.551.9.608.272.057.533-.031.782-.265.247-.232.342-.482.286-.751-.054-.267-.248-.578-.582-.934l-.314-.335-1.406 1.32Zm-.897.843-1.997 1.875-1.036-1.103 5.204-4.887 1.424 1.516c.664.707 1.026 1.352 1.086 1.934.062.58-.17 1.117-.693 1.609-.307.287-.659.46-1.056.516-.396.054-.806-.01-1.231-.19a289.006 289.006 0 0 0-.83 3.66l-1.15-1.225.83-3.118-.551-.587Zm4.3 8.581-2.814-2.997 5.204-4.887 2.814 2.997-.904.85-1.778-1.894-1.143 1.073 1.655 1.762-.904.849-1.655-1.762-1.342 1.26 1.778 1.893-.91.856Zm5.353 2.804c-.47.441-1 .62-1.589.534-.587-.083-1.163-.426-1.73-1.029-.52-.555-.878-1.144-1.07-1.767l1.025-.963c.173.498.342.899.505 1.2.165.305.343.558.532.76.227.242.447.384.66.425.215.044.414-.02.597-.192a.615.615 0 0 0 .19-.34 1.28 1.28 0 0 0-.006-.47c-.029-.178-.122-.512-.279-1.003-.149-.458-.23-.832-.241-1.12-.012-.288.03-.566.123-.832.093-.267.262-.515.507-.744.46-.432.968-.617 1.523-.553.558.066 1.095.374 1.612.924.254.271.464.559.63.863.167.307.319.65.454 1.027l-1.192.45a7.08 7.08 0 0 0-.41-.915 3.013 3.013 0 0 0-.434-.598c-.196-.209-.395-.323-.597-.343a.66.66 0 0 0-.538.19.66.66 0 0 0-.193.308 1.072 1.072 0 0 0-.009.411c.027.162.126.51.295 1.042.225.705.304 1.258.238 1.659-.063.399-.264.757-.603 1.076Zm2.432 5.486.884-1.54-1.781-1.898-1.593.786-1.117-1.189 6.95-3.07 1.267 1.35-3.494 6.75-1.116-1.189Zm1.562-2.673c.795-1.403 1.245-2.196 1.35-2.379.107-.18.194-.32.262-.42-.378.207-1.34.688-2.885 1.443l1.273 1.356Zm.172 4.52 5.204-4.886 1.037 1.103-4.293 4.031 1.982 2.11-.911.856-3.018-3.214Zm6.685 7.12-2.814-2.998 5.204-4.886 2.814 2.996-.904.85-1.778-1.894-1.142 1.073 1.654 1.762-.904.849-1.655-1.762-1.341 1.26 1.778 1.894-.912.855Z" fill="#fff"/></svg>