<svg width="24" height="24" fill="none" xmlns="http://www.w3.org/2000/svg"><path d="M23.04 0H.96A.959.959 0 0 0 0 .96v22.08c0 .531.429.96.96.96h22.08c.531 0 .96-.429.96-.96V.96a.959.959 0 0 0-.96-.96Zm-4.581 8.691c.009.141.009.288.009.432 0 4.404-3.354 9.477-9.483 9.477a9.45 9.45 0 0 1-5.118-1.494c.27.03.528.042.804.042 1.56 0 2.994-.528 4.137-1.422a3.333 3.333 0 0 1-3.114-2.31c.513.075.975.075 1.503-.06a3.33 3.33 0 0 1-2.667-3.27v-.042c.441.249.96.402 1.503.423a3.334 3.334 0 0 1-1.032-4.452 9.458 9.458 0 0 0 6.87 3.483C11.4 7.233 13.092 5.4 15.126 5.4c.96 0 1.824.402 2.433 1.05a6.582 6.582 0 0 0 2.115-.801 3.316 3.316 0 0 1-1.464 1.833 6.59 6.59 0 0 0 1.92-.519 6.983 6.983 0 0 1-1.671 1.728Z" fill="#BDBDBD"/></svg>