<svg width="40" height="32" fill="none" xmlns="http://www.w3.org/2000/svg"><path d="M10.42 7.677h1.621v4.006c0 .345.28.625.625.625h3.722c.345 0 .625-.28.625-.625V7.677h1.62a.625.625 0 0 0 .528-.962L15.054.288a.625.625 0 0 0-1.054 0L9.893 6.715a.625.625 0 0 0 .527.962Zm4.107-5.891 2.966 4.64h-1.105a.625.625 0 0 0-.625.626v4.006H13.29V7.052a.625.625 0 0 0-.625-.625h-1.105l2.966-4.641ZM27.044 14.422H2.01c-1.108 0-2.01.901-2.01 2.01V29.99C0 31.099.902 32 2.01 32h25.034c1.108 0 2.01-.902 2.01-2.01V16.43c0-1.108-.902-2.01-2.01-2.01Zm.76 15.569a.76.76 0 0 1-.76.76H2.01a.76.76 0 0 1-.76-.76V16.43c0-.418.34-.76.76-.76h25.034c.418 0 .76.342.76.76v13.56Z" fill="#135D2D"/><path d="M25.403 19.711a1.546 1.546 0 0 1-1.55-1.626.625.625 0 0 0-.623-.66H5.824a.625.625 0 0 0-.624.661l.002.088c0 .848-.696 1.537-1.552 1.537a.625.625 0 0 0-.625.625v5.872c0 .345.28.625.625.625.856 0 1.552.69 1.552 1.537 0 .345.28.625.625.625h17.4c.344 0 .624-.28.624-.625 0-.848.697-1.537 1.552-1.537.345 0 .625-.28.625-.625v-5.872a.625.625 0 0 0-.625-.625Zm-.625 5.942a2.804 2.804 0 0 0-2.106 2.092H6.382a2.804 2.804 0 0 0-2.107-2.092V20.89a2.802 2.802 0 0 0 2.132-2.215h16.24a2.802 2.802 0 0 0 2.131 2.215v4.762Z" fill="#135D2D"/><path d="M14.525 19.52a3.695 3.695 0 0 0-3.691 3.69 3.695 3.695 0 0 0 3.691 3.692 3.695 3.695 0 0 0 3.692-3.691 3.695 3.695 0 0 0-3.692-3.691Zm0 6.132a2.444 2.444 0 0 1-2.441-2.441 2.444 2.444 0 0 1 2.441-2.441 2.444 2.444 0 0 1 2.442 2.44 2.444 2.444 0 0 1-2.442 2.442Z" fill="#135D2D"/></svg>