<svg width="40" height="27" fill="none" xmlns="http://www.w3.org/2000/svg"><path d="m10.326 10.535.13.041V3.875c0-1.092.85-2.096 2.462-2.807C14.33.445 16.197.1 18.175.1c1.978 0 3.845.345 5.257.968 1.612.711 2.462 1.715 2.462 2.807V18.27c0 1.093-.85 2.096-2.461 2.808-1.413.623-3.28.968-5.258.968-1.104 0-2.192-.11-3.183-.32l-.073-.015-.035.066A7.87 7.87 0 0 1 7.969 25.9c-4.336 0-7.863-3.527-7.863-7.863 0-4.335 3.527-7.863 7.863-7.863.82 0 1.612.127 2.357.361Zm3.126-5.063.04-.092-.04.092c1.254.553 2.932.856 4.723.856s3.469-.303 4.723-.856l-.04-.092.04.092c.505-.223.918-.482 1.207-.752.287-.268.466-.559.466-.845 0-.285-.179-.577-.466-.844-.289-.27-.703-.53-1.207-.752-1.254-.553-2.932-.856-4.723-.856s-3.469.303-4.723.856c-.505.223-.918.482-1.207.752-.287.267-.466.559-.466.844 0 .286.179.578.466.845.289.27.703.53 1.207.752Zm2.029 14.89-.034.108.11.02c.823.153 1.713.232 2.618.232 1.791 0 3.469-.302 4.723-.855.505-.223.918-.482 1.208-.752.286-.268.465-.559.465-.845v-1.424l-.155.102c-.289.191-.616.369-.983.53-1.413.624-3.28.97-5.258.97-.77 0-1.52-.053-2.238-.155l-.109-.015-.005.11a7.822 7.822 0 0 1-.342 1.974Zm.262-3.508.01.072.072.012a14.49 14.49 0 0 0 2.35.186c1.791 0 3.469-.303 4.723-.856.505-.223.918-.482 1.207-.752.287-.267.466-.559.466-.844v-1.425l-.155.103c-.289.19-.617.368-.983.53-1.413.623-3.28.968-5.258.968-1.032 0-2.042-.095-2.972-.276l-.193-.037.083.178c.313.668.535 1.387.65 2.141Zm-1.902-4.04.017.02.023.008c1.194.442 2.71.683 4.294.683 1.791 0 3.469-.302 4.723-.856l-.04-.091.04.091c.505-.222.918-.482 1.207-.752.287-.267.466-.558.466-.844V9.648l-.155.103c-.289.19-.617.368-.983.53-1.413.623-3.28.969-5.258.969-1.978 0-3.845-.346-5.258-.969l-.04.092.04-.092a6.613 6.613 0 0 1-.982-.53l-.156-.103v1.513l.051.029a7.92 7.92 0 0 1 2.011 1.625Zm-1.906-6.662-.156-.103v1.426c0 .285.179.576.466.844.289.27.703.529 1.207.752 1.254.553 2.932.855 4.723.855s3.469-.302 4.723-.855c.505-.223.918-.482 1.207-.752.287-.268.466-.559.466-.845V6.05l-.155.103c-.289.19-.617.369-.983.53-1.413.624-3.28.969-5.258.969-1.978 0-3.845-.345-5.258-.968a6.619 6.619 0 0 1-.982-.53ZM1.428 18.037a6.547 6.547 0 0 0 6.54 6.54 6.547 6.547 0 0 0 6.54-6.54 6.547 6.547 0 0 0-6.54-6.54 6.547 6.547 0 0 0-6.54 6.54Z" fill="#135D2D" stroke="#fff" stroke-width=".2"/><path d="M8.63 14.36v.1H10.01v1.323H7.352a.768.768 0 0 0 0 1.534h1.634a2.15 2.15 0 0 1 2.148 2.149 2.15 2.15 0 0 1-2.148 2.148H8.63v1.028H7.307v-1.028H5.565v-1.323h3.42a.826.826 0 0 0 0-1.65H7.353a2.093 2.093 0 0 1-2.09-2.09c0-1.107.863-2.015 1.951-2.086l.094-.006V13.432H8.63v.928Z" fill="#135D2D" stroke="#fff" stroke-width=".2"/></svg>