<svg width="17" height="18" fill="none" xmlns="http://www.w3.org/2000/svg"><path d="M16.1 13.51a.496.496 0 0 0-.49-.502H2.566l2.17-2.238a.508.508 0 0 0 0-.705.479.479 0 0 0-.692 0l-2.998 3.091a.507.507 0 0 0 0 .705l2.998 3.09a.48.48 0 0 0 .695 0 .508.508 0 0 0 0-.704l-2.17-2.238h13.048a.492.492 0 0 0 .483-.499ZM15.957 4.136 12.96 1.048a.479.479 0 0 0-.693 0 .508.508 0 0 0 0 .705l2.17 2.238H1.39a.496.496 0 0 0-.49.502c0 .275.216.502.49.502h13.047l-2.17 2.231a.508.508 0 0 0 0 .705.48.48 0 0 0 .696 0l2.997-3.09a.51.51 0 0 0-.003-.705Z" fill="#333" stroke="#333" stroke-width=".2"/></svg>