<svg width="40" height="32" fill="none" xmlns="http://www.w3.org/2000/svg"><path d="M19.581 24.323H17.96v-4.006a.625.625 0 0 0-.625-.625h-3.722a.625.625 0 0 0-.625.625v4.006h-1.62a.625.625 0 0 0-.528.962l4.107 6.427a.625.625 0 0 0 1.054 0l4.107-6.427a.625.625 0 0 0-.527-.962Zm-4.107 5.891-2.966-4.64h1.105c.346 0 .625-.28.625-.626v-4.006h2.472v4.006c0 .346.28.625.625.625h1.105l-2.966 4.641ZM2.956 17.579H27.99c1.108 0 2.01-.902 2.01-2.01V2.009C30 .903 29.098 0 27.99 0H2.956C1.848 0 .946.902.946 2.01v13.559c0 1.108.902 2.01 2.01 2.01Zm-.76-15.57c0-.418.342-.76.76-.76H27.99c.42 0 .76.342.76.76v13.56a.76.76 0 0 1-.76.76H2.956a.76.76 0 0 1-.76-.76V2.009Z" fill="#A01313"/><path d="M4.597 12.289a1.546 1.546 0 0 1 1.55 1.626.625.625 0 0 0 .623.66h17.406a.625.625 0 0 0 .624-.661 1.546 1.546 0 0 1 1.55-1.625c.345 0 .625-.28.625-.625V5.792a.625.625 0 0 0-.625-.625c-.856 0-1.552-.69-1.552-1.537a.625.625 0 0 0-.625-.625h-17.4a.625.625 0 0 0-.624.625c0 .848-.697 1.537-1.552 1.537a.625.625 0 0 0-.625.625v5.872c0 .345.28.625.625.625Zm.625-5.942a2.804 2.804 0 0 0 2.106-2.092h16.29a2.804 2.804 0 0 0 2.107 2.092v4.762a2.802 2.802 0 0 0-2.132 2.215H7.353a2.802 2.802 0 0 0-2.131-2.215V6.347Z" fill="#A01313"/><path d="M15.474 12.48a3.695 3.695 0 0 0 3.691-3.69 3.695 3.695 0 0 0-3.691-3.692 3.695 3.695 0 0 0-3.692 3.691 3.696 3.696 0 0 0 3.692 3.691Zm0-6.132a2.444 2.444 0 0 1 2.441 2.441 2.444 2.444 0 0 1-2.441 2.441 2.444 2.444 0 0 1-2.442-2.44 2.444 2.444 0 0 1 2.442-2.442Z" fill="#A01313"/></svg>