<svg width="30" height="26" fill="none" xmlns="http://www.w3.org/2000/svg"><g clip-path="url(#a)" fill="#2F80ED"><path d="M13.986 9.126c.233 0 .422.189.423.422a.292.292 0 0 0 .583 0c-.001-.45-.3-.845-.734-.967v-.177a.291.291 0 1 0-.583 0v.188a1.006 1.006 0 0 0 .311 1.962.423.423 0 1 1-.423.423.292.292 0 0 0-.583 0c0 .435.281.821.695.956v.26a.292.292 0 0 0 .583 0v-.249a1.005 1.005 0 0 0-.272-1.973.423.423 0 1 1 0-.845Z"/><path d="M13.986 16.498a6.18 6.18 0 1 0-6.18-6.18 6.186 6.186 0 0 0 6.18 6.18Zm-3.093-2.683a4.651 4.651 0 0 0 2.733 1.16v.928a5.574 5.574 0 0 1-3.389-1.432l.656-.656Zm3.316 1.169a4.65 4.65 0 0 0 2.838-1.14l.656.655a5.573 5.573 0 0 1-3.494 1.412v-.927Zm-.223-.578a4.087 4.087 0 1 1 0-8.174 4.087 4.087 0 0 1 0 8.174Zm3.083-7.591a4.65 4.65 0 0 0-2.86-1.16v-.927a5.572 5.572 0 0 1 3.516 1.43l-.656.657Zm-3.443-1.152a4.652 4.652 0 0 0-2.755 1.18l-.656-.656a5.575 5.575 0 0 1 3.411-1.452v.928Zm-3.165 1.595a4.65 4.65 0 0 0-1.138 2.798h-.927a5.575 5.575 0 0 1 1.41-3.454l.655.656Zm-1.134 3.381a4.651 4.651 0 0 0 1.154 2.763l-.655.656a5.574 5.574 0 0 1-1.427-3.419h.928Zm8.79 3.45-.655-.655a4.651 4.651 0 0 0 1.183-2.795h.928a5.575 5.575 0 0 1-1.456 3.45Zm1.459-4.033h-.928a4.653 4.653 0 0 0-1.166-2.83l.656-.656a5.574 5.574 0 0 1 1.438 3.486Z"/><path d="M4.208 23.759a.292.292 0 0 0 .338.237l2.596-.454a.292.292 0 0 0 .237-.338l-.053-.305.617-.502c.243-.202.555-.301.87-.278l4.234.31h.045a4.395 4.395 0 0 0 2.583-.845.288.288 0 0 0 .032-.027l5.044-4.938a.291.291 0 0 0 .016-.4 1.638 1.638 0 0 0-2.251-.214l-2.337 1.747a2.08 2.08 0 0 0-1.98-.748l-2.368.415a2.579 2.579 0 0 1-1.145-.06l-.265-.076a4.273 4.273 0 0 0-3.93.838l-.108-.615a.292.292 0 0 0-.338-.237l-2.597.454a.292.292 0 0 0-.237.338l.997 5.698Zm6.053-5.915.265.075c.457.13.937.155 1.405.074l2.368-.415a1.499 1.499 0 0 1 1.653.934l-3.577.626a.291.291 0 0 0 .1.574l3.893-.681a.291.291 0 0 0 .237-.337 2.06 2.06 0 0 0-.128-.437l2.39-1.787.007-.005a1.056 1.056 0 0 1 1.247-.046l-4.807 4.707c-.65.47-1.432.722-2.235.72l-4.224-.308a1.794 1.794 0 0 0-1.281.409l-.363.294-.602-3.438a3.693 3.693 0 0 1 3.652-.959Zm-4.403.05.897 5.123-2.023.354-.896-5.124 2.022-.354Z" stroke="#2F80ED" stroke-width=".2"/><path d="M13.918 3.45c.162 0 .292-.131.292-.292V.29a.291.291 0 1 0-.583 0v2.867c0 .16.13.291.291.291ZM15.813 3.45c.161 0 .291-.131.291-.292V1.215a.291.291 0 1 0-.582 0v1.943c0 .16.13.291.291.291ZM12.073 3.45c.16 0 .291-.131.291-.292V1.215a.291.291 0 1 0-.583 0v1.943c0 .16.13.291.292.291ZM17.172 3.935c.161 0 .292-.13.292-.292V2.137a.291.291 0 1 0-.583 0v1.506c0 .161.13.292.291.292ZM10.663 3.935c.16 0 .291-.13.291-.292V2.137a.291.291 0 1 0-.583 0v1.506c0 .161.13.292.292.292Z"/></g><defs><clipPath id="a"><path fill="#fff" d="M0 0h24v24H0z"/></clipPath></defs></svg>