<svg width="30" height="26" fill="none" xmlns="http://www.w3.org/2000/svg"><path d="M23 6.059h-8.952v-2.54c0-1.295-1.043-2.365-2.338-2.365H3.348C2.053 1.154 1 2.224 1 3.518V20.79c0 1.295 1.053 2.365 2.348 2.365h8.362c1.295 0 2.338-1.07 2.338-2.365v-3.778H23a.282.282 0 0 0 .286-.282V6.341A.283.283 0 0 0 23 6.059ZM3.348 1.725h8.362c.98 0 1.766.814 1.766 1.793v.826H1.571v-.826c0-.98.797-1.793 1.777-1.793Zm8.362 20.857H3.348c-.98 0-1.777-.813-1.777-1.793v-2.016h11.905v2.016c0 .98-.787 1.793-1.766 1.793Zm1.766-4.38H1.571V4.915h11.905v1.143H4.841a.27.27 0 0 0-.27.282v10.388a.27.27 0 0 0 .27.282h8.635v1.19Zm9.238-1.763H5.143V6.63h17.571v9.81Z" fill="#2F80ED" stroke="#2F80ED" stroke-width=".2"/><path d="M7.484 15.496a.31.31 0 0 0 .215.104h12.534a.311.311 0 0 0 .215-.104l1.479-1.562a.304.304 0 0 0 .072-.212V9.429a.289.289 0 0 0-.072-.206L20.443 7.68a.275.275 0 0 0-.21-.08H7.699a.287.287 0 0 0-.215.08L5.989 9.23a.29.29 0 0 0-.089.2v4.292c.003.08.034.155.09.212l1.494 1.562Zm-.987-5.947 1.33-1.352h12.279l1.297 1.352v4.053l-1.297 1.402H7.826l-1.33-1.402V9.549Z" fill="#2F80ED"/><path d="M13.965 14.792a3.217 3.217 0 1 0 0-6.434 3.217 3.217 0 0 0 0 6.434Zm0-5.837a2.62 2.62 0 1 1 0 5.241 2.62 2.62 0 0 1 0-5.241Z" fill="#2F80ED"/><path d="M13.967 12.69a.422.422 0 0 1-.421-.422.298.298 0 0 0-.597 0c.001.421.26.798.653.95v.245a.298.298 0 0 0 .597 0v-.205a1.017 1.017 0 0 0-.232-2.007.421.421 0 1 1 .42-.42.298.298 0 0 0 .597 0c0-.473-.326-.883-.785-.99v-.154a.298.298 0 0 0-.597 0v.194a1.017 1.017 0 0 0 .365 1.966.42.42 0 0 1 0 .842ZM8.815 12.704a1.13 1.13 0 1 0 0-2.258 1.13 1.13 0 0 0 0 2.258Zm0-1.662a.533.533 0 1 1 0 1.066.533.533 0 0 1 0-1.066ZM19.117 12.704a1.129 1.129 0 1 0 0-2.258 1.129 1.129 0 0 0 0 2.258Zm0-1.662a.533.533 0 1 1 0 1.066.533.533 0 0 1 0-1.066ZM9.826 21.666H6.263a.308.308 0 0 0 0 .616h3.563a.308.308 0 1 0 0-.616ZM7.374 3.615h1.343a.308.308 0 0 0 0-.615H7.374a.308.308 0 1 0 0 .615Z" fill="#2F80ED"/></svg>