<svg width="30" height="26" fill="none" xmlns="http://www.w3.org/2000/svg"><path d="M21.125 18.14h-1.073l1.35-8.007a.29.29 0 0 0-.158-.308.285.285 0 0 0-.119-.028h-4.613c-.08-2.39-2.074-4.362-4.512-4.362-2.438 0-4.431 1.971-4.512 4.362H2.875a.29.29 0 0 0-.215.108.273.273 0 0 0-.062.224l1.35 8.012H2.876a.309.309 0 0 0-.297.297v1.406c0 .155.142.266.297.266h2.413c-.311.328-.507.713-.507 1.171a1.594 1.594 0 0 0 3.188-.002c0-.459-.196-.841-.507-1.17h9.076c-.311.329-.507.713-.507 1.172a1.594 1.594 0 0 0 3.188-.002c0-.459-.196-.841-.507-1.17h2.413c.155 0 .297-.11.297-.265v-1.406a.309.309 0 0 0-.297-.297Zm-14.75 4.18a1.031 1.031 0 1 1 0-2.062 1.031 1.031 0 0 1 0 2.063Zm11.25 0a1.031 1.031 0 1 1 0-2.062 1.031 1.031 0 0 1 0 2.063ZM12 6.014a3.953 3.953 0 1 1 0 7.905 3.953 3.953 0 0 1 0-7.905ZM3.208 10.36h4.296a4.515 4.515 0 0 0 8.992 0h4.296l-1.311 7.78H4.519l-1.311-7.78Zm17.651 9.187H3.141v-.844h17.718v.844Z" fill="#2F80ED" stroke="#2F80ED" stroke-width=".2"/><path d="M11.999 12.017a.816.816 0 0 1-.815-.815.281.281 0 1 0-.563 0 1.38 1.38 0 0 0 1.003 1.325v.41a.281.281 0 1 0 .562 0v-.37A1.378 1.378 0 0 0 12 9.824a.815.815 0 1 1 .815-.815.281.281 0 1 0 .563 0A1.38 1.38 0 0 0 12.28 7.66v-.348a.281.281 0 0 0-.562 0v.348a1.377 1.377 0 0 0 .28 2.727.816.816 0 1 1 0 1.63ZM12 3.328a.281.281 0 0 0 .281-.281v-1.64a.281.281 0 1 0-.562 0v1.64a.281.281 0 0 0 .281.281ZM17.596 5.794a.28.28 0 0 0 .199-.083l1.178-1.178a.281.281 0 0 0-.398-.398l-1.178 1.179a.281.281 0 0 0 .199.48ZM6.18 5.731a.281.281 0 1 0 .399-.397L5.4 4.155a.281.281 0 0 0-.398.398L6.181 5.73ZM8.48 4.022a.281.281 0 1 0 .513-.23l-.682-1.52a.281.281 0 1 0-.513.23l.682 1.52ZM14.693 3.994a.281.281 0 0 0 .363-.163l.592-1.558a.28.28 0 0 0-.162-.364.282.282 0 0 0-.363.164l-.593 1.558a.282.282 0 0 0 .163.363Z" fill="#2F80ED"/></svg>