<svg width="66" height="66" fill="none" xmlns="http://www.w3.org/2000/svg"><g filter="url(#a)"><rect x="7" y="6" width="52" height="52" rx="26" fill="url(#b)"/><rect x="7" y="6" width="52" height="52" rx="26" fill="url(#c)" fill-opacity=".4"/><rect x="7" y="6" width="52" height="52" rx="26" fill="url(#d)" fill-opacity=".4"/></g><path d="M24.75 28.125h14.69l-1.345 1.345a.75.75 0 0 0 1.06 1.06l2.625-2.625a.75.75 0 0 0 0-1.06l-2.625-2.625a.75.75 0 1 0-1.06 1.06l1.345 1.345H24.75a.75.75 0 0 0 0 1.5ZM41.25 35.875H26.56l1.345-1.345a.75.75 0 0 0-1.06-1.06l-2.625 2.625a.75.75 0 0 0 0 1.06l2.625 2.625a.746.746 0 0 0 1.06 0 .75.75 0 0 0 0-1.06l-1.345-1.345h14.69a.75.75 0 0 0 0-1.5Z" fill="#fff"/><defs><linearGradient id="b" x1="33" y1="8.5" x2="33" y2="58" gradientUnits="userSpaceOnUse"><stop offset=".004" stop-color="#2F80ED"/><stop offset="1" stop-color="#2771D5"/></linearGradient><linearGradient id="c" x1="7" y1="24" x2="48.5" y2="51" gradientUnits="userSpaceOnUse"><stop stop-color="#85B9FF"/><stop offset="1" stop-color="#07459A"/></linearGradient><linearGradient id="d" x1="45.5" y1="10.5" x2="33" y2="58" gradientUnits="userSpaceOnUse"><stop stop-color="#2F80ED"/><stop offset="1" stop-color="#155EC0"/></linearGradient><filter id="a" x="0" y="0" width="66" height="66" filterUnits="userSpaceOnUse" color-interpolation-filters="sRGB"><feFlood flood-opacity="0" result="BackgroundImageFix"/><feColorMatrix in="SourceAlpha" values="0 0 0 0 0 0 0 0 0 0 0 0 0 0 0 0 0 0 127 0" result="hardAlpha"/><feMorphology radius="1" operator="dilate" in="SourceAlpha" result="effect1_dropShadow_8062_3171"/><feOffset dy="1"/><feGaussianBlur stdDeviation="3"/><feColorMatrix values="0 0 0 0 0.215557 0 0 0 0 0.413316 0 0 0 0 0.679437 0 0 0 0.58 0"/><feBlend in2="BackgroundImageFix" result="effect1_dropShadow_8062_3171"/><feBlend in="SourceGraphic" in2="effect1_dropShadow_8062_3171" result="shape"/></filter></defs></svg>