<svg width="12" height="12" fill="none" xmlns="http://www.w3.org/2000/svg"><circle cx="6" cy="6" r="5.5" stroke="#2F80ED"/><path d="M5.697 7.04v-.317c0-.274.054-.512.164-.715.11-.202.31-.418.6-.646.28-.214.465-.388.553-.522a.783.783 0 0 0 .136-.45.499.499 0 0 0-.192-.423c-.128-.097-.307-.145-.537-.145-.4 0-.857.14-1.37.42l-.436-.938a3.627 3.627 0 0 1 1.894-.535c.55 0 .987.141 1.31.424.326.282.489.659.489 1.13 0 .313-.067.584-.2.812-.134.229-.388.485-.762.77-.256.203-.419.357-.488.463a.767.767 0 0 0-.1.415v.257H5.697Zm-.129 1.463c0-.24.06-.42.18-.543.12-.123.296-.184.525-.184.222 0 .393.062.513.188.123.125.184.305.184.54 0 .224-.061.403-.184.534-.123.128-.294.193-.513.193-.224 0-.398-.063-.52-.189-.123-.128-.185-.308-.185-.539Z" fill="#2F80ED"/></svg>